<mxfile host="www.draw.io" modified="2019-11-14T14:54:40.806Z" agent="Mozilla/5.0 (X11; Fedora; Linux x86_64; rv:60.0) Gecko/20100101 Firefox/60.0" etag="dgPUW6wPcGLiyk38sUh2" version="12.2.6" type="github" pages="1">
  <diagram id="nBBXrx4JV2JvCYNo7sh5" name="Page-1">
    <mxGraphModel dx="1248" dy="651" grid="1" gridSize="10" guides="1" tooltips="1" connect="1" arrows="1" fold="1" page="1" pageScale="1" pageWidth="850" pageHeight="1100" math="0" shadow="0">
      <root>
        <mxCell id="0"/>
        <mxCell id="1" parent="0"/>
        <mxCell id="6YzjY-qfxdH3ze6YRLap-4" value="" style="edgeStyle=orthogonalEdgeStyle;rounded=0;orthogonalLoop=1;jettySize=auto;html=1;" parent="1" source="6YzjY-qfxdH3ze6YRLap-1" target="6YzjY-qfxdH3ze6YRLap-3" edge="1">
          <mxGeometry relative="1" as="geometry">
            <Array as="points">
              <mxPoint x="215" y="200"/>
            </Array>
          </mxGeometry>
        </mxCell>
        <mxCell id="6YzjY-qfxdH3ze6YRLap-5" value="&lt;div&gt;Sends&lt;/div&gt;&lt;div&gt;revisions&lt;/div&gt;" style="text;html=1;resizable=0;points=[];align=center;verticalAlign=middle;labelBackgroundColor=#ffffff;" parent="6YzjY-qfxdH3ze6YRLap-4" vertex="1" connectable="0">
          <mxGeometry x="0.1024" y="6" relative="1" as="geometry">
            <mxPoint as="offset"/>
          </mxGeometry>
        </mxCell>
        <mxCell id="6YzjY-qfxdH3ze6YRLap-1" value="Test" style="whiteSpace=wrap;html=1;aspect=fixed;" parent="1" vertex="1">
          <mxGeometry x="20" y="160" width="80" height="80" as="geometry"/>
        </mxCell>
        <mxCell id="6YzjY-qfxdH3ze6YRLap-6" style="edgeStyle=orthogonalEdgeStyle;rounded=0;orthogonalLoop=1;jettySize=auto;html=1;exitX=1;exitY=0.5;exitDx=0;exitDy=0;entryX=0;entryY=0.5;entryDx=0;entryDy=0;" parent="1" source="6YzjY-qfxdH3ze6YRLap-3" target="6YzjY-qfxdH3ze6YRLap-2" edge="1">
          <mxGeometry relative="1" as="geometry"/>
        </mxCell>
        <mxCell id="6YzjY-qfxdH3ze6YRLap-3" value="Test" style="whiteSpace=wrap;html=1;aspect=fixed;" parent="1" vertex="1">
          <mxGeometry x="170" y="20" width="90" height="90" as="geometry"/>
        </mxCell>
        <mxCell id="4H_nPvJmWoPfq0nWGjwT-8" value="" style="edgeStyle=orthogonalEdgeStyle;rounded=0;orthogonalLoop=1;jettySize=auto;html=1;" edge="1" parent="1" source="6YzjY-qfxdH3ze6YRLap-2" target="4H_nPvJmWoPfq0nWGjwT-7">
          <mxGeometry relative="1" as="geometry"/>
        </mxCell>
        <mxCell id="6YzjY-qfxdH3ze6YRLap-2" value="" style="shape=hexagon;perimeter=hexagonPerimeter2;whiteSpace=wrap;html=1;size=0.15833333333333333;" parent="1" vertex="1">
          <mxGeometry x="340" y="23.5" width="130" height="83" as="geometry"/>
        </mxCell>
        <mxCell id="6YzjY-qfxdH3ze6YRLap-8" value="" style="verticalLabelPosition=bottom;verticalAlign=top;html=1;shape=mxgraph.basic.tick;fillColor=#dae8fc;strokeColor=#6c8ebf;" parent="1" vertex="1">
          <mxGeometry x="390" y="45" width="30" height="40" as="geometry"/>
        </mxCell>
        <mxCell id="4H_nPvJmWoPfq0nWGjwT-2" value="" style="shape=image;verticalLabelPosition=bottom;labelBackgroundColor=#ffffff;verticalAlign=top;aspect=fixed;imageAspect=0;image=data:image/png,iVBORw0KGgoAAAANSUhEUgAAAJAAAACpCAIAAABLUSOKAAAACXBIWXMAAA7EAAAOxAGVKw4bAAAgAElEQVR4nOy9aZAl2XUe9p17c3lrvdr3qq6u6mX2FbNgBiCAASCAIkFCIkzTpCnTYVG0LVphh+hQMBh2yGH5jxx2SBa9BcOkRIS5QAANAqRIgFhJzAxmxaBnuqd7eqnu2vf36u0vM+85/pFvyVf71tPToT7RUZ2VdV9mvvvlOec75557L5VKJdyTu0fUnX6Ae3I4uQfYXSb3ALvLxLrTD3B0ISIiUko1j5sH4bE0pHkMgJmbx3ej3CWAmRqZGlmOdtMAtNYhJHtLE7kdRUSMMQCYOUTxBJ/39sldYBJVUNTv/TH99W9Yy69axJZlHQStfYWILMuyLMtxHNd1LcsKlfUDLh/cR9RaO44Tj8ftzSuY/Z6svM25aalmb8e9iMi2bdd14/G44zha69txlxORDxxgTZxaHedmVPcZgqGNS7x++f15ALdw1br5dbVxEcK3+46Hkg8QYLZt7/yCO2mkx0lpXnlbVi6I8W/3k4iIrF6QS3+Ab/4D58ZXbane7jseXO48YKEvicfjlrUzAyInTekRKFsK87J2SXLXYbzb9zzCgRQXZe2ibE5DO0gNW5rCxzsR33lMuZOAhVDFYjHbtvdqZ8cpOQjtgn3ZvGFufgd+CbeP1AVVXnqD16/Ay0PHKNEHKw7Atu1YLHbHYbtjgB0IKgAA6RhiXdBxIcX5Gb75LS7Mi7ktZkrYSCUrN/4chWloRXYcsQ4op9mgCdvtuPtB5A4AppRyXfcgUNWFFGkXTkrFLVJlKs7wjb+UzZnb8nClZVl4EfmLcLKUtuCkoWxsU6mQUt6RMOD9flNs2z7K66kUuR3iW+R4oFWe/RZlTkmil+I9+3wwqEotD+Mh1kVOcu+24pdl47LMfYOSswhKEiRgJ4h2RiV87YIg8P3bToLa7vv+3UmpPZjFPkIKThKWpg5fj+SRf0fmfyBrF/dljFLZ4KU3zdxLUl7e7x4i+VlefoXXvqvG1ikZkFhkxberV1RCuvR+qtr7pGFHVKyWEMiCaEoYNV7hNccsfR86qdLjSI+Q3tW6Sv6mXPuqsJGOEXRO7n59gVcyN/4CK3+hhwuqr8ZZDdYgC9ifYryfqnbbXw0iOjEvLYASJH01VVTJVV75oVz6fyV/S4LdCUhQleKilJZpjzbCUskGV75C2e9T8gadKoobQCAsAB+QjoYc6n0gkLdXw46tWE0RGA9gKMAWNVSTcgFz183NQLkZNf4J6p6Cjm37EItfluqGMItfhjC2OyRhKS7y4qs896cq9mM1sKG6QkUhYUOmBhw0fghfzdutarcRsDC1ejLXEkZQBnwoIQJc1mMVFgTXxLz7+wKBtqljnLQbdTniFaWyJpVlMEtlTWoFimXaLmt8qWbNwsty/YsKb6qhNTVQa5hAIfbFKx42NWVZlogEQXDs77zL9W/TdU9Ot4AwPKrmQFVY9fedUkaNV2xX/MvMV/4AhXl1/guq7yGy6nomIrz8pqy9RnZZDGH9LVk9Q2MfbV3U+FKY4/f+P179SxV/R09lKeWhmRTTAtRQy4vxSGRv6rFFbNsmotukZ7cFsJNFC8aDl4dfhlsjp/G+K1DCYLBqKeFlI1nDP16V3kep8zS5HRzUkJ+VpVfAb+izBakpKb7M72l4ReqaFCFU1jn3HuXeEH5DD96g7g2kA1hC1PBZlkD78IqorCPZBytxqEcOv/7twOzkATv54QlTlfKq+GWV8Slu6icF0KCk0aMVcpnXqpJfkPUrKJ0SnRFTQ2UGfFN1r6jRinjEc9ek6PH8OhWmSJP4K1S7CrmourPUXaOUaV41FHIZdiDViuRnJD1ChwQMQJjE8rwTTnueMGBHRktEdqNYUitKfhZcpbhPCdP2NwIcUSNV6qtJscxrm8hflLISQCWMGqxRl08xJoDcAq9f5dUZWVLkMKUC6vWo2yMbLa1qXhOguKF4ILmqrF+W7vOUHDjClwpHak4Ws5MEzLbtI6LFAdgIqR0jKqmsy/ol0lXqCChptjcAQI5Qp6/SgRgK1YQUYAlUy+fpeFUP1SAQApSQEuz+sJQKKBXA1HjxFRp+WnrO75zyEBYOSDs7/AkAoLW2bfsEbeOJAXZ0TuiXzI1vSmGeOsb0xCfJSbbFqkGFN2/y6uvUmad00CQdAGgL41aAErIj5wiERiOC2BJ+nJp/AkQg0rpfU9UozpQOEKvI5nVZe1e6zlLHWPRuIiyLr/HmLdhJ69QnYO9qM0+WN54MYMdiGWJQzWLhZVn9MQM08Cgl+slOQASmyqtvY+VVeNf0qQKlgiiU0gB2S6C0FciDPML2U7ZQJtADFZ4lWXpN0sOIdSF8mUQQVGTjCk9/U2qbauQ5Ed6bRJ4gbzwBwGzFFnyIPhT3bYl21dCTZv4lnv+hFGbV+Z9XQ09Kop8AKa/w9T/jlb9SmU01XA7tYRSkuvIQEFEOEUAgQsQQRIkEAEAJCCAIRc5H2pDUr6zSPsZLvGHLyqtsxZEaUZkJWA4CTwrzfPmPefkN1f8ojTxHdnzfb3lSenZcwCioyLv/2gw9RYNPKHufdPjOohzqOktdZ2ntErLX+c1/ZZKDFO+BslFYAC9Q36o+W6C4OUBWDwggHqGmuaylSvCUGAITKYEWOKLiBglDLpMt0HtmCh2hHl+fK/A08fwPpDAvIx8WJ02VVVm5ILnryEyi5yGV7AMdyHPbtm2MOWY93XEBs+a/J7kbvPo2Vi7I6HOq6yw5qcNdgghWHB1jlB4Uf5b6coR1MTESTZk8ukqqt6o6grBzqeljUNceqRHnbM5akrU5b0lZS6BAquWphCCAgRggAIwAQjZTgillVEdAXb7qCqjTJ1vacqsEclkN12Bt0ponhRKvr5FrwylS1ypvisqMUefpA6IViuu61eqxhl6PBZhtWdQ5IfkpmX8RN78p5RUefEL13EfpUVjxHRJ3uwgRUaxLYl1iGT1SgarAJwCUMNTpU8LU+zE0VmHvFy3Oa8lbXLSkYkvNEk/Ds0QUlIIFOCALpAESCCQg+IBHUgVqkApQZqwzaUOxgNKB6vYoE6jOQGUCShhYIIIQKGW0VZV0wLmq1NbIkjAWNHOdKtFL8d5D9RgRWZYOgp257kHk6IBprS3bloHHVbLfpAb54hfN1a/S4qs49Qkaf4HSI3AzZMUOChsRKYIW1elTxt/5uQTik1QVF7VZiJnZOC/GpGpTN9SA0BirfqE0k8t1Nk+ghn8SEAThP6lCNknWiJc1L1hmNi55AKJ6PGusoicreqRGKYMYI+ScrpDrW711yiAGkrNBIsBuw5s7irCPoKqrWRHbOJ0H/2BUjggYETmOEx4gOWid/lvG6TDv/qEsvxVc/AO69R0afFqNfkQNPUWxzL6YiQgX5qU8RzGGy7uFR1JWZjYWXEyZ6TiSioZIPyuqL6C4wAG0kCYohJxip4cGEOa0hFxBD6kzBj5JkXiV+Kbim473lkNvpVW3r8+VrftK1kQF20MsBThMLqM0I5u30Hv/QXpMRKQwxwuvyq3vYO1d+tyXxUkf5INb5IiAtZF4ZcHtVMNPg322U+bWd1C8gfUs1y7K7F+hY4o6pyhzipIDsFOk2tEQI7VNXnoTiy8TptVYhRyu92yz0wNw0TLX42YmzgUHrqUeU6ob1CWUEUqE8W+dNhII1EbTJfp/mMUgwIJYIU8USgp1kOoTOcO8rHiOeNGVd7SZjQXDNetsWY3WVEcgqnEBArmsT5V57UeY6+ZYhnofJCe143spfklKS7J5Q4oXyVxB8RqCZUFML/xNMPG3j9LzR/iMUmpr1KU0JfrU6PMAxC9i/Q34M6hNi3mNzGlUzkr2NDvDFOuFnSQrBu2IAOyRX5Dygmy8DLxGfUtquJWPD80XFzQvOzwbMwsJ9hzKaDXOaoJVCmRBtnL2rbInI6t/hCyhtCAtMkRqjHlYmWnFsxav27zo8rptTVX0qaoaqFGChUAEsUWNVCHTUvmuLHtSfRKxEbK7YMVJaYgR8UjKYjYRrKA2Q7Wr8N5GsAg/AA2p8Y+pjhFFxIdnjHSEKbN7DK1KeZUXXjNv/m9Q7+mhDRquSMGSDVsKMakkoboo3o9YF6wUkUJQkMqSeDMqlaOhour1KNFIxgvEQMraXEsEF1PmVpKGyXrUqNNMqWhv11tTU6tky1+3ZQlRpyG7M3pBAHNDm4vaXNKyCUoG1tmy/dSmGqmppGlZbI84Z/NqXMq9cM5RYoLi/dAuiQ+Tk2AJ5iZonuIblK7AZVl3eWlUSs/pp36DOidhxY/AGA8N2D5JDTZSy5prf87vfYn4TTpd1KMVKIAJgYLniGfBWBANAqwAjkeuR7aBZlHSNCrik6zb3g86g+kE4pb1MKuzotICu1HVcFsBA+CDiySLKnhZ8y0lNVHdvv2hvPVIUQ96rY8awCiIBjmALaxBREoAQ2QEPhCAGBApKXO5F/g03fdreuAxWAkQHWF4+nAmMazV3auF0uR2qvGPo7jIcwWZuazSger2EGeIgQkQJmeFAJASWAJdz+W1Enp5HdyIB2+neS2mxpSaFD3OlMHuuVqStpRGK1vRdt22TzRDOmk6N4pexobKiLhsueArYt5TPO/4r2U4Z9kPlqxzZdgCAjSgGWDARyQn2fSjRBAGqpqnU9DPUP+ndN+DaBRjWZYVBMGhQunDAXagZLyyqGOcxj5KlTWZWeRZhiWqx4smZ9u+WORphSF5y1xJ+JdTvJRQE9APshpjioVtI5hsTyBGklZtf2xzcw0kKer/Io2iqWNNSIieNJQQJAW25hlH3lGoaDD0ZIUSEUIrjSgi/C2SJ5OqkrU4r4+o8Y/S0LNw2wi91vpQ+apDABZOojpgSz34BMprwfIbZiagDg/pALFWcUS0D5uZQDGQog4uJ/xXO7kQ02fZ/oihTGsQZOuLSK3/o7lAoAEGgYRkK7btTxA91yKSEJA0XgM1xJQS1SP+t22zaPkXU5y1XGtdj9UoZUIzvquOMJC3zWwnYo+h7xnqOrPl74fNVx0i7jvcWJeOUe8D6szPgjp4MWaW3X0/IVk7eCvtfbNHaq71GNsfM8jIB2B6DQBQUvQUOz/tWfcZQJmZeO3rfcHlpFT2CzErmtdcWR9Qk39XdZ/ZMdA+VMceInt0iGr48APJQT3yHKUnpNApa47U1Pb3MByOEgGv2sE7Kf+1DGxLPyj6Aaa0kIrYue2v4BaTFmlDIAKRNAO6Riwtu1xq25XChH/rrAJioobZesrohw0UmWXXe63Dv5DiKjULq6TxIWo8Nq86kh+kzoeo50GKde14x3DwZa9nishBTeIRhpLJSaHztBp8wtxa582c2rSox9uBODCkpIPLSf9Sigsx6zGjz7PqbxQqCVoZX4lkf+tnmjfb7XTEXh5vghIREIeeZACoILhqmek4aaGUsc6UyY0Og9Z/ikey7khtBKNPU2oAelczc3BPdlDADqdeoRCRk6KR52ntkpRv8IqrOn3othFhCOApczPmv5Xm1biaZOsppkzELxFaI1dbjiNDWi2Juixq+69tyDNSuBYFvT0I2GkoNC5qki1HuKB4QQc3EiJQnYHu9+BI24AqQzZtybuwx/Toc2TtNWZm2/YBATuQSTx6FZRy1OCjlOyHZ0nWhtnWwx6ZFbv23W5ejqkx2B9lSn8QpoXuKTGoEbE/5usRg7Li6bj/SsasbMs5BsQrjlTjSAxQ19noJLMd5YCdfCANOwZgGk4nJfqhuqRYE2431Qyz5Hg/zPCCq8ZIP8DU3eCEQi3v1cwOSkSnBKAIA9zRNsoWHYyqLbYTs0qNymWUqxL4AGBZiMcolYJtS7h6S/0qJOJCT7KssdRIFrX/dkr1eJQ0qiuiJUKSs6F6KdGP/WbBANBah+uG7C37A0ZEx6kzJG2L20l2p/gr4LZ4xWQtcz0RXErBVWpK9DjIbnD8NpNYD0mjAIEiND9a6LEl07E10bHVPOZysplHuQIBggCeB88jz0cQwBiIAARLIx5DJoPebnRkEItBaSAj+ryRIgUbWtac4HKSMgGlixRWShCESUoW0AE7dRBOEa4Wsy+/3x+w409+IjshVpwib48IwDDT8eByUgq29ajoU0KdDTzCRFM0XVHXtgjpEABgQRDmTwwMQ9AiaUoh5sK2Izn0Ni2s9+DyKq7fwMoqBIjHkYjDdYUF5TKyWaysYm4BtRpSSRodwbkzmDyNgQGkkoi5UKOiy4bniad1cC1B6UBPVKjDQDfYr6fIsaEOShSUUvsq2f7XOn7RtZga4MHhFk1ncF4HlxPBTJw6YT3K6nAjtwAQBChVsLCI+SWsrCKXQ6kCY0AEx0EmjQ89gTOTSOxZszsyhL5eKAVFIAXVKC1gBjOMQc1DNoeZWVx8F1/+KkRwZgoffR5PPY5UCjTE1jOBt6qQV2Yu5l9IO0/nKd6g+VrEz8MrHPAbWZZ1XMCaq28dVUS8EpWWhJepJ0IRPRW8nTJzMXKVPi/UDdhtNrBxhHCsuFVbaFD1MDOHa9OyuIxyBTEXrgvHQV8v+gksCAIYRjqJZAL2Tt+vrroEAPE4xePSxCly16Y1RmcGPd0yOkIP3Y/r05iZo698FW+8iWefxgNn0D0uesqYq5pXneCdlH2uLLYHC1BC6QDZdeRnpDBPyYF9VU0pta9V3P8SezeIilRz8MsCIScFZRMHXM3K6juSv0KxDTVYH+uSgCRnBe+kJGerQejzgniDsjdra1oghVk/AbCRlYVlzC1gIyfFIjwftoWuTvR2I9OBRBKODYSuyIfjoLcHlrVrrBaK1tjG5yNtCQTEY4jH0N+H82cxeRpvvY03foSL76JSRaWK5x4T9wFDWeJpZeZdczNGcabOAFrUQI1Lm5y9jBt/oYafpdQQrDhEEFQRVKAdSvRuGfbc1yqeGGAiLIU5yd6QoKxSw7DjYiqcvy7TX0dwifrKerBWB6ykzKxrZuKApkHoUUA3nFabD2teF4HBZl4uvYc3L8h71zExhqefwP3nqa8Hur1UjZqEsu3X9keN5IEbzVqJYWnTsTZ9sy2cmZKxUTz5OP3Jn+LdK3Bduf8chs4ZfUPLAqSi/XdS1OdbmYBs0SNVyVu8+C5f/tfw1tHzMMX7CCReAV4RiX4V69xS5r0vPdkHsEM4MGHUNmX1xzz3Ens5ECPuq44ydeZUX5EyVTSKqHndDt5OSVXpKejRhjI1f2Lrr56HuUV86U9lPYuJcfwXv0JDg0gm4djQdyJicxyMjuA//Y9RKMGx0dsDS8OcYrWszDUVXEtYD5VkrEquUNxY54rSZXipJrO/J9cSMA5UnLrP08jzquf8diMZDrjscfe98DjUjF0ijc4ppV3qOsvzL8nSa6gtwy6roQqlfXLqL65USVac4GYcRGoIaqDxFkukxD1UNQIE61m8dVF+8Iq4Dj3/NO4/S6dGEW+W0DW0MHJcf5r6paQ9Y7TTF2o3iG2x2nZzGro6y5KuLmQyQN2oQo2xWmS+oVDWvODymKNHa1CgpIGuqITPK2VZ6CDrATX2CRp8kjKnKdm/vQwkXONxDze2F2CHoxtElBqk5IB0n0dyUKwYZ/9aqlehuTlECUCytllyedOmTlAvKNWMpiiCE4HEGBSK8vpb8ubbUirhmcfpsYdpoK/xHSMmlEDS6ue2YCAyOEagnUtAtg6gNcCODGLTlovVYdOtMUvqFjXEyIjkyCy4etHVozUAZAExA0MwROnT1PUT6uzPUuckdp/wsrcbOznA6g9O5Kb1qY8bbav3Ap5ZkAGPHIZVZ7pm0TULLojUMCgjoikylBghHSATyOISfviGlCv4qU/R049TPB7p9GhSl5qDVyH5i7ghakcmom075hKjv7alVdq0M+oZG6NmMaEeUSNsCoqXHbPkWKZRE+wp2XDMraQ+/RxNfIZ67tu7C48O2HESHKr/EbM5jfm/lEIJPTWAAUBgFl1edMmGHgcl2+NitLkxAmIufe7TKpnA+CjF3K0NdrRvd1Aow3qS+YaWvMXrthR0PYgua16MkXHReVZ1bx3A3C5a6z0KPU7Mh239rJ0ip0O0Q05jEJIhBS3rtpQ0JaD6gDjVkz+htPwNAaIV9fVITxfZNhLhTHNBxPS15RulZR5B9dqM7emrVj2CRBR0ixLuZDYjFCjKQZtBR3icEjXG5IpUSPIWLzsqWRUlYkg8YhZF+iCF+Ht3+66AHXeNkKACLpJTpQ4f4UxyQ7zq8KYFKHQQ0iBLAGr2YaSnASJFkko0QtmGfyKh1hhGEySCtIZdpE1No1atLS/cALsZ5dU/Xrd/i0vIbUJrTE7AdtDm0aKXaSJPIBfUJcgIiiQlzUsuxmuwBUrgCIFRWZPy6kEmi+zBO24LYCKC4hy8G6pjg7pr5DIAMWQWHSlpuFC9IAv1V54ieYVouRq13HwLRtpWIdV64vDWO/u5xkzmCNvbkYAwPB+bBbz8Gm7OoLcbw0Nw2iOlbea4lbCmmKgBNlmSsjbLjhgigFymTg8Lvmy8K+uXJD2yxxTb5vd8/wATERjPLH2PvG/r+zYp1pig75NZdKWkyIXqBqld3P2Ox9tPHuhRDu3nSiVcm8ZXvoaFJZydwrNPIbZ/MUpLSEMNMM8o2VS85khABCBh1GCV5+O8+grsjOo6K5mJvTHbo/N3BeyIKURheJuy+h2lv0E971LKBzVeyoBk3UFVUzcoQ20Y1HPzbbUAOwDY0sXQ9BG1TkZ8VcRMtY2rIYJfu+tkRqmMy1dx4SLeuwbbxsefx8MPYnQYlm4L8wC0psQ0f2v6Sg3qEcQgK0o2LfgEAYXLU5wt8k0l66+Ytx119vPoPk+xXSew7EEUdwXsKBMFTUVqc1J5E/5XVOp1xNZalxfAJ85Z4ilyqT6sLEDL8FGEI0SdVR2bhilqxV6NP4VtiFlqNdQ8KC3JOCmr/g60vkfT3oZhm8APUCxhI4uVVcwvYX4B2RySCTz+CB57GMND2E6T688Y8Y2tOBKAguoSigmMkoqWqoIB2RBH1FAVhnjxmqyWmJiGnqfeh1THCJSzfWzzKIHzIUyiMMQXLqM2K6XvUe3LlPkRrEqdyodNDFBVUtQSENmgRJNxbbN3TW2rB1QSjXkjPFIaylTvRRNgcRkLK6IUhgckkYBtwdJQWkg19/YAA2xgTIiWzC/i6g1cuoKZOUyewrNP4bln0NPdBlUbWYn+R5E/htZBgdJCLkCAT1JWEihYTAA5QqfKlAr4pi+zfyD591D8JMZeUMlBOAkoJ5r1OIpJPCBgIgwvL5WbUvmOVt8jfQHpFSgPWwo4fcUFLQZQgE3kNL92I87dEvCi2SMH8GcCECoV/PUP5aXXeHEFMRcjQzQ8gP4+dHUikRDbggC+j1IZGzlZWcXiMlbX4ToYHsKjD+EXfw4DA8h0IB7D0QeUCIgBDqAgAilr+ITmKnMaqsdTacMjFV56RW5OBze/pUY+RiMfpu5zFOtq9vlJA8Y+1wqorKI6B7kOdZX0NeXcAs2RyokKgEbPNrs+IClrEhINWIDepmGh3QtJY9NMStNhRJ1P/flaxogAQcylZ5/A6KBeXpNsXqpVBAHmFzE7X29OCkqRbcG20ZnBYD8SCXR2UE83envQ24N4DDoy2ampP22lhtEuCpW+PcNCDsgGaUAINRWtOyKCaCBmVC8jto5iUYqrUl2Rq6+JNYHkKeqcpPQwJQfI3tW97Q5YLcd+iYwHMcIBjAf2EFQhZaEcZI14GXILdIOsm2Svwgoas0gj/doMbAOSihYJ58VGPVeDpbcCoyYwkWBqC9enMFfcqs0BkWPjvik6c0qKZVrPyXpWNvMolFCpwvchgFJhXQ3SKerMoKcL3d1IJmDbtJXubGWXrWh5+3hNOykCNGALNCic4Mttljss90BMlOsjE0i5Itmc5C+L10X5UXhTkhtje5BSpzHwscMBxtnrKC1yNYugCr+EWl6qG1JZhllQsUXKZNFVph4PjtRn7EcY3w4SUL3yV4NUvSa39TI3Jk5KE8hotNy4at2VNbgitUxoS5dti7o60JXBmVMERIJlilI92QJIU02at23pdpTgAG1soC25HAFZA1ogEKa2TqH2xIsl6DDUUQFXpJqX3AKvvyWrrhTjwr34Oz/YsSN3Z4mVNfglGA9BDX5ZvDxqWVTWpbbBNY+MJnGUAmV8xHjfSkIRSNM4SJTNN/5Fv/b2Y2p/Efb2bdtD29ZzbGt/O4QABRx8pQACYkzdnhIIWaJtCbp2W1Zzd5PY/4gyNeGA2IiphfZQ/DKCvHhr5C/BmzNL12lhjpwsddSoy0OCKTrhNWoeqVGkxoCBMEHJFvvSUK321SRDHi0EChOGjSs28/PRYzSIPjXZpTSYTTQMiIQQEXRDrW8vfYz0yJZIrhWDtDdA640kvetkjoaNJ/iWVPskmIBMIj6O5CCN9ZIe2vljewGWHCKlaOtDQjhALSfFZSnOIzeN0i32pil7i4q3KFWQVE2lAjSHK5sWQIFsAQmMiAkJP4Gifd2uGk1sdlCKhnlsdDpFeD/azjeevul+doANLfDaYsF2CxZl77SFAW8TBhhCIFvaRiijHxILphMyKnxK9BnQWdAUxUYp3ktuhxGFXRbtO3TgTMpCvJfiveh7UIlINYuN93jhJZ77a5Fp3bUqgznq9sUx0cQ0aYHLCKcj+oBPsAHV1BJpZ4OtA5EGrjvgh7b2FH3shra0guXoN4rCFvnKDe9YbyKIkJE2TYrWgOyAXUAICI7A5ba5BHU3TGAHph/mEWM+TvEXKD4BpyM6E0l2rxI4VqaDiCjWKQOP6e6zcvqzPPNtnv+2eeM1NVhVE6XoXBWxhJIG1JhcWgNZEbLQysw2mDI1aXXETe/o27DN7e+O6fshASQAGBQucmtt6UZCEJfS4+J+gZIfV+4YqQTIPviqQcdOTZEiKwbtkpMiK8apcVk6LyvfNFcXpVhUo5VwTgfZTClDWkQgPqQMikWr56Wen6aoPWzHsq3Hw7EYROM2aXRBNe8AAB8ISURBVMRtrbAiOu5CEZfTMJ7hverUs2lIo0rbxh4bFDNqNtH2HggDVaAGsMASSjBZEfZgFFeGUXtGOr5A8SfIHYXeeUrLbU5NASCCdqlzUsW6JTXIonj5b9i/Bi1qqApbyBJKGAqLfz1IQZAJV62J1uA0SXqE9LetaC3toyRb6nYaJxudG8YJzcnnTacVxgPSDlvTq0kTtpZbJLSmq8lWZW2+GwAxuETwACUUN9Rc1UcAA873wn+KYz+vUp8iZ68Fgo6S6WA+ylaCFOvEwOM61iVBTRZy5ipTh490QBrkMtIGOZaakk3BEDVuvjVqlibxa3VNSzvqcIZAUotc7mQl656sftxihu21+01Nosh7U/9Qq027QabWcf2ZBQCYkCepUbg+Zn2lgfAORYvX75fEZ/TQz0DvkPCNyh6dvyvIR17Wj7SDzIQ+9UnV+4xs2rzkoqIBwBLV41PMoCacFQkApvp8FqC+SJ5ED8LzW46pdbBrm+Z32P0Y237dfv4IwuB1kgpRjFWvVw9yBFLRweUM7E/qwY9DO/tarz06/+QBA0Daob4H0H0/GVtyjtQUCGSLGvCQYKlBcgy/0e9MYIIQhEJCHB4TEzGofr7ZBsIkjVWimhiHLUko1MvGcTiLpNm+fuW249avoa42DN8W+BtzsQGCELVMOUgiXDIArxAqoITRAx5pIQJqijdcznfDnaTU6EF8zfsNGACK9yHeK1DwFJgAkBY96FHSiC9SEClB/EivMagJmwBC0vjXbEPSDhJa7QX1xiQgocZc9zp+EEgUmCiECH9tWFa0QJIQeERUub1NM8FWR1pIPPCKkgooGahmabqnJG+L50KlsOfE2YN0/l5VU3usJX+AWxqASYGcxlrkWtRQTaUNk0gNnGWd1LAaXmmv+0gjuI3Gaqh/suHs6v3WVqQIahGTtg9GGCDqE57rV2+LCZqRWWvdRYoU7WxxbAFQJlklBEIdRg149SCMIR6R8cTLi1/atwhnb/awF/0/yAzOXe+6cQ3Zq6I9NVRV4WLzGqrHoy4fcZZAeMlICeCdXFfTt7WMZPO40ax5Hjs5vEP5NkR+3U22O7ztTcrgRSUVoqRRPT6lGwupOkxpD6aE5R/xyoV9u+7os1eORhRhPMndkJvfkOJL+lSJur16mRuBLOh+z/R6ZtbiFZYxQTegCM3FZML3u0naVYPRhX+P5B5pe+6j+dlWn0pr0mZk2lIYw7UKGbfUgNR1bUvlxm6zQ1sL4HOezC2CDzXi6QGvmeghl6m7RoMlzr2krmpjPDX4JDmp3Yji0eeHHRowryClFdmc5qU3eO6vwdPUIVLS0EIxQxogqKGaHqrxTFzyzDlWvZqSodJI05EjStmjcVjLqjWtddSCNYNciuQY2/HbOQXShBMNA113o80hyvrAT8MkR4fP6hczJFnFMwQWPVxTQ7V6A4YEBKMoxrIxw3M/oKAqpSXVfZbSo5To3w7b3t2+jw/b46/bGrMUF3n+VZl/UTaugMvQvbKa4GJeDRXRW0HagKCHPDNSg8NSU7zO3M06YYFbyb+GhglAjfNRzWu4LGr4GwFtyyA3fVtEL2VLrNZSmbbMRXR1qsgLhC26S2iiFY6TlSCrxCtErlHDNdVfT91KTUkuxqsp+J1wE6gwL72OjasYfV6degHxHqKtEBxrBmYQBAedIsaBVLIUy6j7fx5OWiBSWcX623zjz8zGnBrKWfcXKWEoYVS/p4ZrZtbllYA7lR62oJrUY9u7v3NeMZJ7bLdjDe2Utv7dfkzbEWw/j8iZg3z7BcVzBIg1WVF9HjkCAB6Za0lZHRLrAXX6c9b9U9Bx8StSXCArAbdje7Jj3+VV9gHj4FaRlKU6TyM9AisOK0ZECCqSHofdy9e+Imtv8nygT5dhi+rz7QeLvOKgIrzOvM7UpamZwolO+m+xx0i/Cuq5x0YbqadFmnnFBjMMa+Wa5yMSyVtCGuNt1D6WFlW7FnR1Khl5IQQIwDPEC0QxYz1UVD0+CAjILLmymoD1qDr/91TfQyrWJcoi9qVrikA77jm8b4efGGAgRcn+tjN2gtwMxbpk/aIsXuPlQI9VYIvKBPpsWV1I8xJJTpm5wEooiRFt8VsNc0SqtRYlNc8DJNJgBhEwIjnJRuVB8wkjPCXKZXZOa7U7wC0oRkocERAvEi+Q1FiP1PRERaUNAATESzGpdqvh83r8Y+EmQOENyG3f2TEi+3b4ARYoPxpXrF/eovQI0uOieqVg1SPoOKtBz5oqUzqQojGzPhcEfiMrESYy6uSeqMnmmerRNFO9VkKIwoRII9aut298vB5B12NqtJIp0sgIN8KJ+tJvzeuEwXhIXCIhdv2viAQGTFIhc5F4lVSHbz1QVF0BbIEAhmTDJjWA5CA5qYPYVmbelzfsPwxznGgsFHLSZHdEC75UnO0n83rIExHeNGbGl4K0wq86PIh2X+M8mtg0ei0Sn6HRlXsd75mr3PfnloMaZBXBZSUV1qNV+9FCOPMDgDDgKYGzxyJuW+Qg64PtTyiMMUdZyi0qEoB8NBekB6BFD3n6bJk3LTMf41mP01rHFGIK3DZLrGG3mtSj/nujBqHuz5rH0jqOUglpi5+a05rqZxomt14fHiX6UQPYbh4BQHiFgh+R5KAnK9b9JdUZQDVoUHj5oAK/fMB+Oogx2x8wETHGHHk2pojAL0DylApa++UpIMHW2bLkLF6zeRNmwaeYUoMWNBE1fJhq92dRdxU5L1v+1Lx1HecmX9ilTqT1YuzGEUO4mqSjzvIlS+YWmRtEycA6X9Knq20UPSxjqW2ilhPj77GdeygHXEj2QJT96ICJIKhIeVVkTXX6TcDC//RYVQo6uBU3sy4v+sYm6tCUIAlzHxEeUA+0WtPRmy+9gKhVGwK0Wmwl6dsRrZ9p5Rvbx9jChCOkQVyoLYcoPsxNMldJKsZ+tGSdqaje9nmuSpAyUslKeRVeDm431F59eEDXc6BSgqO7MfYkexXlZeVWVL+3pSIFCnq86n58Q2UC8Y1Z9s21mlQjLip0ZlG/tcPx9twjbTtGe/ttPqx5cEDf5hMvkrlEssJ6tOZ8JKcGa1u/uxLV5cHxpbTMS2+B99m69CQBw1G3JJagYuZehJmjjhp1+G0xVqgoSaNPV51nNnW/hzKbec/Meg0CQs2xMWEShrTGxhrHokKuGIGwNeYSGX+hOt9r8Y7WP2m+H8029es07o4IyQRJDbyC4DXiVVHDVecjOdXvkSuIQAyALFH9NUoEUprn+RfFK2J3i3fw7j3oQjdHoR6mJqVlWXhV2bPU4zXXVmkTG6ozsB4rSln775BsuHyrRooU2ZRUAMARH8Zb/VkjVIueR8v6tfmjBh9Bi2tEGm+3nK0SudYyL4D44BUyl8E3RfVV7YcL1n0livOWr0aAKFAmUBnfFJdl6Uecm9ZWHLuMrRzchh0UMBHxff9QmEk1K2sXsXmRJpdVn7cDWqFo0SM1eawgAfmva14RaAKRGrHJJiiCavSYapA1qud0JMoGG7dtJRtbw2WRuscoWtvqIaNLQzeuVueoAoKBZGGuinlLKBHYj+ftRwqUbFG76CsBgFymXk/lc7wxzQsvq3g32VPbs72+7x88bXuItRAPpWQizBtX+cafUM+y6q0hvs8bpCeqUCCC93oHr/gIIIHocYccAhpjkmEuuHUcWaKGwqLoxnGLTDRrwhta0sw9oj0niUbw0DrfnoRkSA7BazDTQmnf/fSadaZCHft9r4EaKprXC3z1q9wxocPU3baOPWCvAtC/9Vu/dfDWOPBqK5K9ioXvyvpf6tPL1FWrJ0N3F9KgGFOHgRIpatlUUmYwyFZkh2vONnJ/9Q8Q0Bw13vazcT5iKBuD/c3EYpPyNU6GMDeCwDBXWT8vVZJFCt4gWTGqt+J8OGedq6h0AKul4lFwW6IE4TuW9UFxuJ2UHouO4/u+f6hc0uFWGz2QkoVzMhd/KJt/o3rmVW8l3MQjGtG0KHvEPFCC9XgVJKQRXBZedc0MJBA9YFPGIqcRmYXCAmqN8reAifgzarmf9lA66v/QNv7S6vSWdRQpEC8K32RZDdRgxXqgaD9URJxbYYYAAYlp5MyU1Dea0QIF1eFjrMR5Jeuv8GwPpUcpPdJcx+2wDPxwgIU7Ee814CKCoGJWL8rit4BX1NkiHAYrsBJYRDZEA1qYIELKiPgQj7SB4jDStCarlGBKBf4PMybHcsNIka3TRBkt4UTbEA+K+LbQXdFe/gzU+LXxs50CSV2novWQAhiRKswN4evMa4F1X9F5Kq8n6ksJioACglHia6k58BwEFhhQBjogJxDHI5uhhDK+Gq/w9FVZ+AGnhunMT5HbBaUPu7URjrBDn+/74frPO/5VgorkpvnC71Dyh2pwEzGWspJCXCrdkBHoCbIGoTuFbJiaVFakfBPee5RYU30V1enDEQC6z1PP5PVQrfb9Lp6L87z4uUCfctWQozoUFKAiyXI0XmpgL38W4dutMTM0/NaWbxPqpgdZR/BjkVVDXVX3b+Wt+0rUEbTK5SvKrDmymOJiJznjFB+ElRZh+EXUsqiuCG+QW6aOKnX7qsdDTfPiu/zuH1K8Vw0/jXjvEYKlo+zQp5Ry3Z0SmkHVLL/F17+CwjcotUgJC9YQxR+GexbuOKx+0hmhBJED0sIGQUX8LKrz2HxD8i9S/LoaLYb7BUkAKWsz7wbvJczVhJlPUMyiLkv12rrPRlrX9/ut/2uQERKiBkhUT8IDzd3Rpe5PqJEpVGiknKS+22mIayC8ImaeZYVhVfVISU9U9GhVZYJ66TVDCpa5FZfiBCWfoZ4PU2IYdrq+m0B9Ll1JamtUW0B1WqpXxZtGUJWyRrmTep5U578QjH16/5mQ2+QoK2Yz81bDKAJT5ZULMv0Nnvm+6gTsx+CeEX0e8QcpM0nJQbKTiFishjdh8YoSOysFh9cZdFVPlsUR0kDaWOfKlA5UV0BXA150JeuYkpEiqy5NaU1JRS6giAjS3Nov4p/qlR+hdrWNsTWMZGNOdujCJBBUIAXhnMimj4pH6ZqeqFhnys3QuK6oAfFCTFYHEX+KRn9eDT1BbmbLwl/CBn5RSsuyOYPcNcpfF+8G/DmRrCy+hrFPHAEtHHmXWd/3W4AJI6jK5k2+9qc89xKJDetxdL1Aw0+rjol9KhtJkdtBIx+W2iZubJhb82qkSpapA6CgRzzV71v3lfy30sHlJC8Zc9Mzi5bud1S/rTotckmscFpx6N4IVK8gBTXoOdePt/qzcE1AEXC45abIOpvFgFcC1Vu1zpbsB4vU44cp3VahlEA8ZWbi0KfV0IfVxCd3/I6kNNwMuRl0n4O8INVNXnyN534A/1UpLgWTnz9azx99TXrP88KtnOEVzdq7fOF3UFqivofV6c9Q/yMU66oXChxMqOOUJMdlScFTiJvoy0eWULfvPJ+zHizyTMy/nDLXE2bW8LxHCUU9luq1VZemVOjeGuZRReKwNr8V8WdCCEQKwmtsFlnyAbmeHis5T5XUoKcyATk7bSrNQE1JTem+UUqPHOg7kqJYRo19RPU/LIWfCZwu2Hsup7+7HB0wY0wQBLq8xEuvy/xLlOjFyPPU+4DqnKR490EWBmwT4bASW0qaixpVLYbIYer0KR2QK5RgbfsqwdTvy0MFXnF4xeUNl/OO5GxjK4opSiiKK8SJXIJLZEEsICxwr6uaSCDwRWosFZEyIzDQAcVretRTmZrq9KjTV10B4oasBrE3kLLmnC1lDQC2gAFDwtIqlNxXSJGdgBUL7A7DR19c+li7Pvi+r/KzsnmLnCSGnqa+Ryg1dKjd3psilTUuryLQvNoL1SdeUmo+mWXK5amnovo9ihvYQp2BlQlwCpy1eNXhFZfXbdnUUrbE11KxxNMoamhNiqAJmqBAKtS5MJgwjZnxATkGCV+lAtXjqT5f9XqUiih3aE8D4g2b12LIJsXvEDGkq0CFAo1qVirZQxW0Cyg4Blo4JmAAvM777OKcGvnCQXY+2FXESO6GbM6RdEl2ivofQXev8go8/zLfvKk21hHk1ViVXKYwnaihegPVG+C+MgykaHHW4jWbN2zJW1ywpKy5qmDCDBaBQJbAZnINJQ11BKozUN2+6vMpHVB02Ypm0ipUSQPOW2a6U1b7oIaRHgb7XF6n0hKCohSWKD+LoHKQzYtCqdW2jcIcUo69r4qOmYmf0o5zHLS4tCprF+GX1ORPqvt+gdIjsBwEHp36FL/9e7LwffOeUMJQr4dYuwkiwAJ1BDpl9HBNTHSQBdIc91KgMEtCIgQKN4wONyVW2BqEtR4MUtHmUlqqE2r803TuCyrRLwDKK7z4hrnyJeTnJPueZK9Sz30HKdzwPO+Yc4JwfMAAGKGAYR1V0cWvyPxLAGjsJ9SZn1bd5+svrCvaTuD0ZzioyuK3eSYJV5SzU9Zfg7TAxhaPItEcWCOjuzWuaGTtW9JMchU1LyR4M6PHP60mP6e6z0HHiEjcjHIziPfI9a/DL/Pi66rz9L6ABUFw/HImnAhgaAwQHK1Wh0iJdmnoacqcov5HI8WwBCdFg09SYYGX3zDLQv1VZPzmDhORvB+2dHizRXRGw9Z3OwJVZNSsdSAFyyymyZmi/qdV38PNLDvZCcqconivASQ/g9j+DMv3/UNt1ryHnAxgAIIg2H8f9R3FTujTnyZl7ThJm9Ij6LmPMlOyflEKBakoshtr0kYTyuGBAZlwBBmiQFqkuceBAIYkqMdeIEA3Nmnfker5JAULuQ6aeJoyE9vGRIiclJ762xCG0nu7gyAITgotnCBgAHzfP9p2fnssgEukVGoIw88EuWtStKRo7TwEJZAAknV4w5GiJZ6Czaqvpno8ShsAUlOStXnJ5bImgFxGR6B6PUoFOw79SElLwYKJU8+DiPfs8tj2vhTRGHO06ord5CQBQyOaPs4OBduF4t3Ucx/pmFQsqeioVtV/FrVsuJLtgvUgYmepr48MJH+N5y5IbkaNlsgRnovzRj+pCUqMk3YRbMraTbN8izpKqrem+mr1Gf+NnDCXtVRs6JjqGNtjzuS+aHm7rEB0ZDlhwAB4nmfb9vH39WsKuWnqGCcrDt+SWjMtDxGIIdm0ZKNbypNET0r6Seo8qxK9gEj2urnZI7kfsLlGLvPmGegnMfg0pceV5YqXR3Za1n/Ma29LeVZqBdVfo7iBbrwEVS1VG1YMsV6yDzQxeYsEQXCyuhXKyQOGRg3QiWGm44j3wEnBtxG0hiAREIoOT3dx5SHd91l17u9QehSNek3qPg8nZa4GZnqJtND4s2rqP1BjH2vqhARVXn2Hr3yZF77P67M2b2KgSsl64CyegnHETsBNQx2aTN0mtHCbAMPxeONWISLtwOmA77YK9A141eEbvYIn1JlfVqM/QbEutFfXUt+jlL0u1/5CWFm9T6mBJ6IWjLSr+h4itwOpEb78Rf+ismo5NV6hxtwTSEzFu2jP6s8d5QQ54Xa5XYChUdp/QpgpclJctpuUjhdjvDwo9Kia+ntq6OntexMitKXxXooPkFKI9251RURkxahjHKdeIFL83h/zwi0h6KkyHAYTwSErcfBlu0K5rWjhtgKGRrTouu5xd3IBwXJJa0CEIZs2L3fDf1SN/qwa+xjFOnfuVlJkJyjeQ6SUvUvXWzHqmlJWjGo5M/ttWbxMCaOGq2AIFGln90TIVhGRWq12/FzG3nJ7AQMgItVq9bg0hAhQpAgEqll8KyWlSQx8zDr/BTjJPfpUrBglB0hZe6xoQlYMHeN44JeUXzJzG3zdqIwBh0OfB0Xr9jmtLXLbAQvF9/1Q1Y56AYEEUAY+8aprFtJq6ifV5E/ujRYASg3h1KdVrJMyp/Zqpm2kR+j0Z3RQ5ltf5pm4lLWQgQQ71q5tkVqtdqxpj4eR9wkwAMxcqVSOqGoiElSIAilZPJuh3k+ogWeoY2xfDaDEgB59jiyXnPQ+LbWt+h7i8gqyl838uxAPFIhXhOyFxPumWE15/wALJVQ1x9l/RbOoiBjyS+IZeEnRY+qhz1D3fXSAQVtykuQkD3gXivdQ3yNq7FN8eU2CVegAdh67qA4zH7YG9ETkDuyry8zVavUQVEoEHIhXkEKAWjd1PKiGn0dy4HY8G2XG1eRnkRoTTkg1gFcUU9uuZL7vv59mMCp3YiNkAIDv+9Vq9UD2hD1UN+FXYQTp0zT5U3Sk8OggQjqm0iNq4tOqYxzCZCqoZsVUtzz2bSXue8sdAwyNOuL9YQsqUl6DqcLpUD3n1OCTsGJ7tT+OEMFOqokX0DlF2pGgJqUl+BUAvu9XKpUj1OqerNxJwEIJYQv7YucGXgnFBTEeZSao90FKDdGRR7cPItqhzinVcz+lRsCBFOYDlj0e732W95t07CG+7/u+r5TSWrcxSa+A4ixB1MBj1PfIsWPw/YW0Tf2PkJ2Unof97gcOm+y4rfIBAiwUZg4JmG6I1DZ586ZYCXSdo87J2/0AJpS+p9H39O2+1xHkAwdYU8J+A0DpKTX0YVKuypw6CJU/goRmOXxXbsf1T1COMhniTgkJa9sJB7WPbxjD9UeaP0/kCd8H+eBq2HYRUqHnD1klERFRuBtueNw8aG55GUrzGI31nO4ihLbI3QTYFgn7/YNvxE5WPkD8554cRO4BdpfJPcDuMrkH2F0m9wC7y+QeYHeZ3APsLpN7gN1lcg+wu0zuAXaXyT3A7jK5B9hdJvcAu8vkHmB3mdwD7C6Te4DdZXIXD2AeSn7u//rh9ZWirdVrv/XCbm3+u69e/PqFRQD/9teePTuwz16wd0ruadhdJv++aNhBZDATOzeQAuDaH9z3+B5gLfmHn5j6h5+YutNPsY/cYcBKXvDb37n+8vWNQtV/bqrnv/3Muf/+a5cWcpWJ3uQ//7mHAfzTr126tJgH8Lv/yYf+nxdv/uDq2nyuMtGT/M8+OvHJ++o7OH7+f3/55nopbuuXf/MTzSs/8T9+iwXnBlJf+rVno3dcL9b+529eff3mhmvpJ091/voLZ/rT9WmGv/FvL3zr3RUAX/v158a76wWQK4Xab3/n2sXFwkK2MtGbePJU13/+E5Op2B3rtzsJ2GbF//v/5o2rK8Xw169fWLy5Xl4pVJfzrTXqZrOV95aLAP7Jn7z94rX18OSlxfw//tKF/+OXHn9uauc1anYTw/yrv//mjbV6KeZ8rvLK9Mb//ctPTPTsPIfsrdncf/WHbxWq9ar6dxcL7y4Wvndl9f/8pcfHum9LSeu+cieN9e+9eDNE62x/6p989vwvf/jUpcV8FK2ovH4z+4vPjP/jT599eKQjPPP7L9867B1ZcGOt9B8+NfabP3n+sbFOAMv52r/41rUdGwcs/9O/u1yoBqmY9c8+/+Af/9qz/82nzhJhLlv5X//q6mFvfVJyxzTMC/gPX50F0BG3f/dXPpSOWQBOdSf+2Z+/u2P7/+FnHvjsQ4MAPvfo8Cf+l++L4Ob6QbcqjMp/+fGpf/ATpwH83SdGfuF3Xr2+UvzeldWb66XtSvba9MbV5SKAv/+R0z/9yBCA8wOp66vFr/148btXVm+slSZ7Dzq38wTljgE2u1GuBQzghfN96YZL+NnHhv/5N654wQ61oc9MdocHnQm7J+msFb2qf5TlBz//+HB4YGv1uUeG/sW3rgJ4b6m4HbDphuX84su3vvzGXHhcrNXN443Vf88Am9+sT2sc6GjNzrM1DXbEZjZ2UB0nsoKmOkZhfW+qtZJBf7q+itzCZnV7y9VifV2v9ZKHbRMQ5rKVIz/DceSOAdadrHfWRrm13pkI1ktHXP6MI+XyvhHepXh+rVhr0sKVQt1f9qZ2WP9vKFN/k/7lLzz6sXN9R3uqE5c7RjrGu+ornXz38kqlYdz+6tJyqXboiY5hnFsLuAnA67eyuzX+swuL4UHA8ucXlsLjqb4dElFNZv/23Gbz5Fy28uK19Revra8Xj7vc8tHkjmlYR9z+1P3933p3Za3o/eq/eePzj48sbla++MOZI1xqoidxZakA4L/+ox9/7tGhtWLtj1+f263xv/rOtWzZn+hJ/MU7SyFHfWys877BHVbx+NBE11R/6vpK8Q9fnTvdmzw/mL6xWvqX3742n6ukY9a/+0cfOcKjHl/uZBz26y9MvTGTy5a8dxby7yzkASQdy3Ko7B2OTfxHT4994+IygEuL+TDKPj+QulItbm9JhM6488VIPJCJ27/5k+d39ImWot/87Pl/9Edvlbzgt756sXne1vRPf+aB9B2Kne9kHDbRk/yjX33msw8NDnS4nQn7o2d7/+BXn+5PH3qFgMfGOn/7Fx9/aLgj4ehTPYkvPDnyu7/yobP9qan+1FhX3az9/5MV5FQW41ET512cbOqgLirEzSbGy+6hI7E81VwdW/aCABMFwVXpFp46EnJCXKzMTFICHL56kktSzOGDLPQHg2sH5v//DE69h95/+2WmKDQr1mignTMYwYAVib///nOfcOT7r7+sLEzTow21pfj+/WdYcOzB+2+/GBgY9GX4B8phgxwMZA5beOxh/x7oGI+0AOe333/ff/3FwMCgKsazIMmEm210JgELGOAi8fjdt6vOPLn58vPrz7/4OFikBDg8dCQCDaW52GhyMtEwAIOrDhsFBAEA+Z0qMZgzSesAAAAASUVORK5CYIIA;" vertex="1" parent="1">
          <mxGeometry x="20" y="150" width="85" height="100" as="geometry"/>
        </mxCell>
        <mxCell id="4H_nPvJmWoPfq0nWGjwT-3" value="" style="shape=image;verticalLabelPosition=bottom;labelBackgroundColor=#ffffff;verticalAlign=top;aspect=fixed;imageAspect=0;image=data:image/png,iVBORw0KGgoAAAANSUhEUgAAAKMAAACuCAIAAADVkCoJAAAACXBIWXMAAA7EAAAOxAGVKw4bAAAgAElEQVR4nOy9d7hdVbU+/I4x51q7nZKT3kNLgBQChJZIjyCCSBURsCAg6PXi9SqgFwtiwQYICKJYEKVZAAFBwCggvYQEkpBGes+pe59d1lpzjvH9sdY+id77u6JG8H46n/OcnOyzz957zXeOOcd4xzvGomq1in+Nf4LBb/YH+Nd4g8a/kP5nGf9C+p9l/Avpf5bxL6T/Wca/kP5nGf9C+p9l/Avpf5bxL6T/WYZ9sz/A3zqcc319vevXrl28eMnCl1/p7e6tlPvKvd2Vcu+WzVtnHbTPnN/+fsiwjmFjxrR2DCq1tre0tg0dPHTynlMn7jZxxKjRre1tQRC82RfxRoz/Y0jXa7Xe7q51a9csfXXhU0880du9Ndda+vWDv/FOXQImY0ygUKcuMOTEzQj2rzL3d3Z3VhsEMBGBQKykoioiJG5Ie+sBsw7Z/4BZk/aYPHrs2MFDhhQKhTf7Qnf8+D+DdBLHK5ctfeS+e376/Rur/WUBlyvJ7KMOzgWGc+xUfKLKChbnEmONkBhLDtJghCYPDhAnEBcYQyyOBQZiwKD+euV3jzz4yIMPMJswV3z3me897oQTJk7aPQzDN/uid+Sgf/AMRxxFC+a+ePO11/7+1/cxgQhKSAReEXnstuu4KMevLFsNgRekVssAM7zXllJ48KGHPPLoE8Vc0JIvGJUAgHiQKAkxCQNsvFMi9qJBEPb31yqVfgjU4x3HH//hj104fcZ+//+A/B8UaRfHq+a++OB1337p/gcg1qs49Q7ioA1IA0iAOlAFGoADPKDZd/LQ9GdjzJDBgyqd3ZZJLathtmwssyECctaGbK0JRJSAOE5y+XxfX7mvr58IABQAQIZOefe7zz3/gr322vv/9In+D4e0q1bX33LzoiuvTGBjYgYF4gQKVi/eG4qhDqh7SVQT75OIk0j6k6SmvgpXhVYhFSBqfgnggDpQBxzgAABEFBgTkqHQUCHIBzYgU7L5nq7uarVGYGVWkCMldYaVmQG99LOXnfuh80stLW/yHP1V4x8I6ahSef6qq1/6xjcIgDEwAdgSi2FnmfJhYJkDawe1t3MQAEQmBLGNG5TE3mviNfaaeI1cEjkfuSSOorpqpwZl8VVJqip94itAHahBUuDjdDUwQsO5MOeSxCVelRRMZI0xhJjgmJmIVBXAf/znJ//9Y//R2tb2Zk/YXzb+IZCOypWHLrv8+e/exAaxOFGV5q88EAMKCKDbtmgIwIACYc4U87ZoTRGmKNoi2kJhG8IigjysCWyFk4bECiPEdSc9SaPX+15JunxcUd/wVFZXAcpAb2r3DFD6HkQwAQmzZD47CCBmUtVzzvvQf33mc/+H8H6TkVaRrtt+vvzDH2Nr6nGUkDrLjhSA8Wo9YlA/sYNGSCLSOlAl1An9qpFqAvSJRAAADxAQACFgAAMOKCgQdxR8iamNgzYTtJJtMUFAlhSi6sTHMffErleS9b5/lcSboZuBPqBC8AAILEihJwIRmGn7ce313zn1tHcz/x8goN5MpJPlr605/QxZusSoBhR6IUfsmT0DEIgYEQ+IyXmI87EYjuEjhTOmIZIAiaKqXBduUFxXXydTJS37pB9oABHgAQEIsEAeKAItbFqNbQcGhfmWXL7dBu3WGCUfOyfaHdU3xNEqF6+C2wDtBvqarwCA/ye8d95559t/cdfOO+/yZk3j6xxvDtLaaNQ+/bnem39cZ7Xeh8Ti1JAVJVXApiaiTOogAiVSeDFk4EVEGNYBnuBUE5gExrEmRuve19RHhqqkFfUVkrJIRYN+9XWVBrQOREAMCGCBgNAKDFeMKORHhi075QYNEmO9ln19o6tvkNrauLYavE6kDNSABqAgA1ioYZAhT2oUonj/Oed+6Stfy+fzb/xkvs7xJiAdvzi38/hTbbkmQMTE3jMRMamoqm7v+zCzAh5CRExklS2IlUmRQB0jZhHihCRyLvGOgVDZgrwiImkEVFXXYI4EddEKpEu1i7AFusn7bmg/wSkCIA/kgGGg8Ta/sy1MyBc7CpY07m9UOuu6VvQ1nyyVeC1QAwkQkEKhDBBCghLEkC3m7737wf332/8Nns/XOd5QpCWOe/7rs+Uf/NA6WCEFOVZWYkCJCBARJgZBVVV1AHJiJmYCoEoKJYJlygU+4OKgtqBUiEgaTupRQ2oNLdepFgfEqupFhOEUjjliroIqRL2ETu+6JO4Tvxp+ZRY5p/MBVgwBxgbB7vmWXUuDhzBJ1NhQLW+BXwm3II7WKroVCliQgXFgQ4Y4ITgCPnDOuV/9xpXW/sORj28c0tH6DeuOPg7r1wQCKyAlBQsBRCRQAlHGVhBR9p0ITaQBiPdQZUZ6bnpASSPnbLFgBpV8zpI17GETb+sejcRHDVKoeFEVqFNOiBuEBpmIuUFac0kXySrSJb6+gmUjoQqEgqKgBLQBg5CbFPK+QwaPCYvoK5f7+7cgWka6CFiW+E6gAQaKAICYEYcEqxg/fvzdDz88dty4N2ZiX+d4I5AWkVW33BZf9PmCr5EkxnmjnEZKABEZVSiEkO7bomkqgii1aREhSvd0KFThGGSQ+rsa2DBRrbi62qDQ2qLek8CCoqjObAJr1SekpOK9EyX2QKLqiRLVWH0M6qdwbSArcv5VjVbXpcuL35bN5RJkJDDVBIcOGrYLh3G5r1eSNYzljOXerYmTDZAqqAEIA6qBIgAI+uWrrjrnvPP+cdxyc+mll/693+O+Sz9Tuu5HbeUy+wQQCzZKAhLAgBhMAAEMYoBAhpiJCaQiUFi2pEqqChUCWwsmUUpXgxPvxRcpN2bIsNChUe7NeZPEjURc25COsFioV2sEgEBElik0bEgD1RxT0XCRuVVpmMdYb3Z2uQlBfnCY8z5pqEaAh/aDyyZc7+MG0DFmZFjMl4JwsAlGKnaOZTfm4SFClUi1pqrMooGHIeChh35Tjeuzj5j9957e1zn+vkiLyHc/8fH6T2+fWPMlV2Noos4oc5MJYWiGMjRlJhSaWjOAzC8jNpoGtSTQCBoziTUUBE65ZhAZ1tC2tbX39PQwWAkeEoTB4CFDompdqnEIYwQsZLyyIFSyxFYlEC2oySsCSAgUhTpER8GMC3LtlgWuIYiZI2I1dqu6+b2dC6p9a5J60FIYnMuPYjvSy1C4EZaGWZu3NnbeQRIoAEP0zNPPbNi44Zhjjkkv580df0ekvfdf/sgFG26/fb+gMKyWFNQLvCcwDIMAKEgBgNNjGVAmFohCswMbJAQ1YFELSj0gSxaeAmWTIAAJszCKYaFQKJTLlYYkatkDzCbHptbTZ8UaZaimwbBCAEpPCsOGjHGsCrGEAtCq0uZdu/fDQzsqZ4YbyXnvvfcqFei6xG10frNLVlQqW5Io7mjjoR1tQdgBM8LRRLK7mLCDhMV7qAcU/MpL85csefX4E05407fxv9c57Zz7xAdOX3HPb05qGbS/mFK12go4xJ6tKlk1BuqhjsgqEbgJQDODBBCxqjqjniXvkFc2IAcTE9gWGpJYIau2YSWBG97eweK7e7qNNcIQ8e2tLQUb9GztNByqgChdPqTq030fqkQEZiFlVUNEIupEmHulUYbW2VSM32h4pfpFcbxI0QlwyAWyofex8znC2NbiIcVBU/Ot7Q1n+8q1pL6J/JocLxG/NEo2e58ABBw8e/ZPfvnLNzcV9ndBWkTOPfPEtXP+MLGOM1uGj+rvc9IoGibvYIJEORATAh4+Zg3EMEihBBIIg4lImsy3Y1FGzlEIJpiYTH9outUFg1obokmtQeQLouM7hmpfzddqlDEqfsSIYUkclXt6LFsCJIt/oUB2NngBEcOkqQxrSb1zSeJVFOyJI/URXD+kk/3aAEuNeTmK1nmpE8oKBcQaOD8C2D1f2KelY1qpNEIlqlR6osYW1i3Gro0baxv1LYpeYJ/DDrvj/vvfLMuuVqs7fvcWkcs//YnnfnN/WznarzBkaiztLo6sKiuDlIwHs7IFCdSRGk1NWdOjrBlggUDMhqFGxIIYFJPpzGPzkNzQk2ZP/s9zdjnnlGT6TpuoNn7mvjykY9miRa35knFKosbaUkup3N+vqgGpISIoA0aVFUbTg4AMOIAxapxqAsSGPbMNQgV7hZCBzTMjFG13NJKCMWGuPQgT1bqIAlY0R9QArXbJ4lplYa2nUjDtLa0jw8LwRIdG9XGaDM0F+WIxAF57bcVr69cfdeyxb/yZXa1Wu7u7dzzS113x5btv/lHJYyfBkaY4OoqNJqxpjESeSQyEVEGqzDAG3HS8Kf1ZAWHyBhELKRslz6SqxgYbcpjwkfdN/uplNHZsNVcYe9SRe7z96KGzj+pK/IpVq305KonCJ6Zo23LFuLfKYFJJPT2oQtFcTwpI6vNnh7cKQRggBVSsMdZYI2IIObI54lCk6HU42fFhboQx1rs0pxKDYsARej0tq1SXV/q7wbajvb2tVDKmrRGNi6PdQjs2sK+9PG9dpX/m7DfUG09hbm9v38FIf/eGa2/5zo3SXx3uZb8wnO4pF8cKNQArsSqBSNUADBilEAywpFoRIkfkSYUUBFYlEatMCGKrROgXb/aaPPXyT/9yziMXfvjj3/r6NS+8Mj8/YsT8+S+/5eSTppx2Klf6Nz4/t8Rsctxig0Z/XZUogzfdNglQaiZAAdEU/5TZFFFVEoEqAQZqoDkho2CD0FBR0Zq49sSPoGBEodBiyIurKnIAAwkQUbBZsCiqLCl315nCUuuQUnGEIVuPiomMyRU7X5pXtWbSzJk7cM7/lzEA84gRI3bkOf2z22752mWfI1C0YctbC6XjTHFc0uAoCckY8QawWVJZB3JCAMVgDwhDKXWZxACBkAUMkEAjIm/AYbBCohGnnVB476nHnnyqq8tOo0b1BEmXj1pKpdn7H3Dhxz66J7c+dOwZE7aU2wq2YILuvrI3piBqmvAqAFVWktQJJCWlNBAgUBavE6PJ2FhrA6cKn5B4AwG8UF21S5NOw50BbQp0ucqqan2zagWoAHWCtZR3WlSMBnZvKU4dPmxcoZV7q6ZSi+v1muEDf3jjxBOO31HT/v8a28OMHagN7dq65crPftZads51KPayLePrLnCRN+wUxGRECWqybZQE7OEFnFLfoagBGSD1zgSQNOfIDLgQ4YZGpLuPn/zBs36zdtW4nXf91EWXHjRj7yinLyxZdP111//klnv3O3D/PWYfFxVCVeQdJa4B0oAAVcmIE1JNk2XpFq6p7Tb/mw1NH1RVpNy7GhWAbCYuk4JKKwUdqoMjP9TpsFIwsS1YU68vi+NVQC+j4jVmxGQqTpb3156qrtmjo2N6S/s+w4eMqdV9d8/qs84Zu/TlwqiRO2ry//v4E5ixo5BOkuSDJx5PXjyr7SvPCIsTERSSasjSEBIQlARIIB4ASAAhOCZArSgphFRASROP7DxlY4HAA6C4UJh5wbldI4c+8KPv//hnP+ur9G9olPfcfc9dk+hH13zn8o9f1MJFEnTWa7sEAQLbSCKF5JwkKgQwOCNi0vhKoanjp6SZP5jS7EjzKyCyZFTVEwlbR14ZUA0DDgQuabTB5I1p9a7YVx9u7YRcYdcgtzSqL3ZuFVAlJNCYAiazSZKe7u7F3d1zc7n9hw2ausvwYqX+7DtPOuyZJ8iYHTL/fzL+O8zYUczJ5z7zyReefsoQcRKPqjSOaxu+UxSzq+eNwoM1UKgz6pgcQUAwrGwSBpgKngwURN5wxBIT1DAZS6CMK7W5irXR7rvt8al//+ZNN7zz3e+Zstde+x0445n5z0f12mmnn2EcLvnYx39+++2HHfs2v2pt38JlHYV8f1JX74tKAlJi0gxZYODf7BwxxhBxqi9gJhEFlImYWUWVWYgcwQMeAiITWgMDgNXn2XRwbpBwKU5anB9u7dh8sQMIvPdQgbfEpAxQA7LG+/nl6vye7tqgUlsu11Kud8w66G+f/P8+kiSp1+v5fL5lO3HjDrDpF597+r5f/oxCTqKovbd2UNiyi+cgjpTVCRhkgAbBE7FldRIqMzTxSZ4CKAyUYQRQoTAoxNCG86KigBfviWrsN3vstv+0tZXeivP9lerKFSs+/PELW9pbZh98+EEHHDB4wqjhMw7Mjx46b+miqaed+Lt7HvFsoWSILDgTgzKjmQlNPW8ATKyiqh4gEW9tICKAEBFU0swKKSmIAUGWRXUJiExgjYGqaOIkUC3CtCsNif2wJB6dy+8chAvjxkqXbJC4F7BAemCV2fSIX7ZqwzPhlmeuu/IzRxwyfMaMvx2CPxmlUglAd3c3gAGz/ls9snJf7+wDp6OeUNHWNna9xZuz2kcMr9YCF1lW8mqVGLbB6kmIKecpUGIVg9BBHbMHBJyo1NTVID6fw6C2cFhHOLjNlwqaD7hY3Bq5fd97+rxa37Itm7S/tvCVBf/56YuGDx/RgtzSVcuXrl81aNCQlWtWaFT/0Ozjnj/9o6OWr9dK2ZILRGJloUwDmCkd0sM4tdosV0akMGwUKiqcOodQEIwGDBJIxuFBRJUZzGRhQNRgJOLJJemSqUI64bcEvDnHG5Es9e7V2Hd5RIBDGMESKERiEVtgcGD/sGp1adCgvxXb/2nsYI/sa1+5LI6TkvPcG41IcOigwcMbkYnLTEzeOgSUhjGqBLKOVL2SIZuveqoa9EHKzGgp5UYOHT5l0i77TClN3CkcNcIMbkcQopBDaOA8NMCwkb++6QYbBENGDHfV8ffdccfGDVuNN8WOUmJFg2CfvffZ3NMN0mp7sVuSFmaGFRZNXSwFE0kTafEyIHagZi5coJwRaJqe36SqcABxGoalD8JAlTyJKhhs2DLDBqTKzrXBGnDO+RaWDuhwpkn5cIlzC2NZpzHgQwQGwuCYZINzn7vooitvumlHIPun408s+29CevGrC++96xc2zCX1anu5cWRx8C6eOerLQyxxLFCyYBA8Qa3CKELKCdCrvjOgzXkduveU8bMO2X3WzPzk3aOksbqvc0lX17oli1av37Bly9burd2Vek9vb2chNvn8oJdXLL3sm1+RRvnIY96631uO3LJqjbe5IcM7Nq557Te/nVN07OuxH1Sq7TK0vEgH+bhdqZBoAaA0ahZRwGumMDHMbBgg8R7imVhEBFlWnJoUizfq2ZOHETAYxETkUtMnMiK2kRABNhBLlqyKtHnNw7fGOpgwQmQs0bh8sFNRF8XR8sR3wgsYxirEi/zo9ts+8NGPTps+/W/E9X8c24P91yPtnPvwB89SVfIuqdam29LeVGyp9SolRGARhiW1Dp6JWRwgClNT6re8MfStM/d5+wdPb9tnWtmEv3riiWcuv2XFkuXLVqxYt7U/1dyn8q7YwBfQ1kCJ7ObEdW/d0tYWbt60EWSHjhpRywUhhQsXL8yHuUZvmZntkFHHff1zfSe/3DnnsRV/eDJesb6jq9ZmgqKx1oumvj+IAYDgiYAQ7AElFigTQckTEakBG9WYxVkYUhU2AFQSlczymQI1odNYxSWeYBScDwua+MAlRcIgNRWWEmlrPRphzCSTX17QeRItjXynj71hAwLRySef/OqSJX8nQdIA2H/9q99+8w96unsJkM6evb0eUsiPjPoDX6dAEwCeDcCQGqlA24mUTJnNZkZlzPApHz9/wnFHPf/yK/dcfuW9jzywubteU1hg7MjWfWbsMWL4iOHDh3d0DB7U3l5oaw0K+QBk2SxYtHDdayum7z21Um2oJC6pGrUotLyy4NXDDzvixzf94MGHHlqx/LVjjjpq331m7HrkW3et1Tf+4akVd923+vFnaHPXmDAoOs0RJ/VG0eTVkWHLIgG0CkQKMoFRIoIDBC6nUiQDD6gaNqqiCgIZqIgyMXuN1XmQkkl5QBHnEzXMQcgiSoIiSNkUgZr4FpEOwbigsCovi5J4uXddgAM6t2y6+fvfP/eCC3YYvH88UrD/So+st6fnbbP2bagk3X0Tqsk7WtsPkPyQWtUicuxIYcUahAobMQIglLhhguWclGbsPevii1YY/9nrr5nz2BMuwtBB+Qk77/SWg9+y/4wZu02cOHLM6GEjRiA/5H96W//Ziz46a9ZBy15beuGFF8IacPHx3z34+8f+cMrJJ7/rlFMbtVpvd7UeYfKuI2fNnPm2Y46Z/fZji/kCXl288I5frLzvoUFrNg+LfCsZr95wyEJG1anzUM0US0TEQvDkyPsQ5IkUAEEyEjdlyoHmKUBE1lrnnIik5VtETEyGDTN70VqSpPKEhvp+9d3QrjDckgtW+mhpo7pCpBsQYNG6dYM6Ov5qOP/s+CuRvvYbX77j5u93b+0ZXk2OaynsGw4aUW60udiQCHsGjLDCCBliUpcEQXFF6MwB0w75r4t+/MCD37j2O6s8Jk0ae8RbDn3H8ccdeuhhuSHDgAD1nq7OrZs3b+7s7IziuF6rNaIYICIm6PBRI++47dZZs2auXb9myuQ9Z7/97c8++cStt95+0SWX3HTTTbMPP2L8+HG/vu/+l+bOe/GFF9ZvLLe30Ljx404+6cR3nnzy5MlTsHzNiptuWXfPg7mNWwebIOeFRZ0kaijwGqhhEEMVxGBPcHAOatgYgoiKiGXDRACY2XsPwDCnbp1IlmY1xqhq4hIAgQ0sGfLi4R2QwDdE6sSd6nqI+8Kgh2SJJMtctEHcOz7ykcu+8Y0dh+yfjr8G6Uql/PZD9unfsDVf9UcVi0fawuDYt8RaUMQaMTWJYyJnKKfkoH1hoXvPcW+94jOX3HjD7ffNybflTzvzrDPf995p+82EJCsXLHj6qademjdv8bKlXV3dPT3d5XI5cUmSSDWCBYiQy8EYU49k9hFv+fo3vn7lld/s6+keOXrMxZ+65K677163du3Xrv5eKlhqlDcuXLjgySeevOeuu19dumRTT7TzqPYTjjr67LM/sNesWVi0+MUrr+t7+ImWrb3D80WTJOwTAkDMipSytbAKigDHZDJ2Tb33DDLMA4p0VWUikTTypiAIvPepZRs2ouK9t+C8NV5FmbyKE5+IT8hWCb3eleE7g3CD4ZUaLUzqP1u7tu3vE3Hhr0P6W1dd8eOrvtHSEx2cKx1ZaJ1QrYbeM5iUJItblCDKqoTAa8OGyzuKh339smuffPSym+6YecDkz//XZ48+4YS42veLO3/5i5/9/OWX5lVrtUp/4gED2ABhLsdMqiKixoRJEomoDdiwiaLGJz/5iUs/85n+WjVfyN/6059++lOfGjVq1JGzZx+w//677z5prxn7gVsAV+nZ+Pvf/u6+u+/77Zw567f0DhlWOvGkd/7b+edMnT69/MCc+VfdWHt63q4adsRJzNIICJAg0ZzAggGOwR5sAjIMVXXOqQiDjDEpnKlAHQTDJnXbU3IGQLoaRCSN4MGEgFNCRkW997GXSBGR9qjvYu0JzTqi0eeeffoVX/k7oAz8FUhXKuVZ0ya2bu0/IleclWufUGsMcVVPSNR4YsM2VfcxicKL+gBmmdRHnn16/aAZ7/joJydNm3LjjTfutf8Bv77rzqu+eeULz8wnRirsiQUthdCLAOq8VwUbBlJZcFoKxdayKoLAnnDiCWPGjZv/4ouPPvaosTZJkiRWG2LsuHFTp0yZdeghRx111B5TpgIFoP78Y4/ffOtt997/602busZMGPq+M077xIX/0S7m5W/duOGHd0zo7i8ZoxCoNxYmkhAGCg/2MBwQk6S790D0lTEwzKQK0Uy8rEgNXkRVhYiYjYAj8UKUCuECkCGCF+997F3sJQpRg6/EroeoO8yfsnJxrr3974H0X8x7X33FF1Y88ocjw8IhYduIatIhiUHkiByTMrOSSUU8LFBhgVftHtwy7sxTvnn/r1Zu3PqDb92w3+FHXvO1yy+65NNrXlvfXsx71TAfHnbYIcOHDl63dh0b8uKJ0DF4sPfeOzdAVBtjvFdjmIjmzZv31BNPLV++Mp/PiRcCFQu5XC5fLldefXXJHx5//O677n7u2WdV6iNGDdltz/2PO/64w/Y7oL/Su2jRkt/PeeqZ3z48dsKEgy78cGnk0KXz5mk9GqxB6JwJgogkkyrCxKkwQny6PxvmFOmUXCOAUx9MRKEMZmYVAcDE0Ix+ZbYK1vRQI1YnAVlrLZE1ICtxAb7EtgQqOZ8YO/jwQ3Y8zn8p0kkc/9cJJx+VLx5m20Y3khI8aQxIYlgYRhEIE+ANPIGhVkkM18aNaJ198Fd/euvhh771wks++7s7bv/4xRfHLmnJFVwksXfjJoz59QMPdHd1Pvz4E+2txXw+N2zY0NvvuHWPPSfNmfN7KESRCgWY2VqrKqVSC4D0aPTeq6ioeueZOAgCJhPVGwtfWXj/vfc9+vjv+ns3TRo/YZdp+510ygm7Tdh586pVL7208KEH7u/q2XrsheePnLbnmqfnBVv624ytJVFCqiKsZIMwyRlSGZB+cVObTEQDuU9qpk4y5XKqU0sJGCgrhzCsqbaJWChQMkLklcnkw1w7TN6rQMlyAE6efGbIJz/298hx/WUCtkXPPfe2XO5QWxpdi0u+EZJL4B0bBbFQKMhBDLyQd6webBFEXnOl1q7Ormq5cfBbDlb2t95zR6WRhNbEUeQUCjDxmtWr77n3V4lg8uTJhx9xxLTpey1dtozZjB07WqDMFAREpN67er0eBEF66HifiE+lgAxl8XCJJI0krsfwlAvyBZNb8vQrn//05Ue849hrrv9qpa/7lDPff+cv7zjv38+tGbruqu++98R3uUm7HHD91zftOmotEwX5wIMAx+oYLGpSVgxQVRFV0czdzNQNqk2NUvqVsusZr55V1Sekzohjl3CSGIHxCq/kRL1YCYu2raXQbm0ulwvaw8A/N3eHw/wXI/3ylVfNDNuH9DcKiA0j8bE1RsCqbEXz0BzUQASakDoiEAsoH+S4IdSQYqkEX1/ds8kRjEI8EuZY0NJaXLZsybJlyxhob2/r6+0pFHKLFi38/GWXr127LgisqsaxANh5pyu9jo4AACAASURBVPHTpk2p1aJU/C8CkSxXkT3iPTNbNi5OkkbsnHgOS/m29a+u/MLHP33S8cf/4uc/GLrT2K9d++2vf/Nru+885uHf/OH0U9+zeWTbQd/90pqRhX71RbV5ChLWuottI7FelaCU5a+b5BgxMylUlRQkxEoMIgFpKqUQcR6qQj6hyHEi7JW9kvc+FggRPPlGEnV730eBcqHFltqRa1UTf/WqNxnppFod/dTcMf31YUxGXSJODaeaWVZisAelbYRYyAox4EjzyNU6yx0tLe0Fem3lIiqYwSOHkcA71YDFeAVaWlrb2ls//OHzTz/l2COPPGLq1ClTJk8599xzR48afsAB+9100w2nnHJi4iGglraWXXbZuRE5Im00ImJYS5QmHxhJ4owhL977hEgDS1GSiEW1Vm0Pci0cvDL/5fPP/9A5531g1crF7z/v49/+4ff3mT75mRcXvu/97+0aN3jm1y5d0ZGrMnN6TTmTBwWiEIUIZ2Uk2Fb0awwxqypIkTlnymmymygtQlIiYYJhJaQ2Tkwe4sR58UqaGK36uFGvm0RKMCUTFp55Ef07Xpr9FyDd/+gT4/trHZIYiTJJpRDUGCWjqqAYXCOOwUZQTDTwPpGkQEF1Q3eedPTojt/+7oGkXnvXsSeVGCYIEvgwUAVGjhy+34EHfODs91ljisViT0/P1i1bHn30sThOvnzFFeMn7HzE7CPDHKtixn77dXZ2nnXGKbfcdtvhhx8axz49n+v1pFGLcmGQ+DSqgRA8wVqQi0MjfXE9NuqcWBfcdesvTj3h5Mfn3Lv/Ycd85+Yf7Tt9rxdeXHz+BR8tHDZz9Ifes6klJ2SMVxAIkrYlZAWrpmGVpH52up+reqgwCamHCKkQ+fTPLMOQEhEFpIaVSQ2TAbMQxFDqzYXwBXI5OBYnImC2YZ7+8PSbifSmL3zFECdABCSkBA00rcBIBZiqlH2lZ1aa+HNGwiSuLVnxtsOPfP6FVb+87c53nXrG0Ucf3VdptOVzPpHWAj3z7LOnnnzKzIMO+eUv7/vhD3909133Tpw4afXqVZs3b+4YNGjhwoXLly9vKeYAnP7ud4dhuM+++w4bPLinpxcggU6eOvmLV1x26ec+9c4T39FIfOISgQahSZx3XoQyqm7oiGGzZx/R3t5aKraufm3l+844667bfjBx7wOuu+k7e02e+OTvnr/mq1/f533vqY0b3sMcckiJT6AOAlUQKSHV5atKYIM0sR2k7kN68URKlDapFBHvxYuIKBSkAzWEyLKoRMxsyDTrSdSLF+fjRlTpr7ivXP2mIe17+2jJEkeuDh+xOgaBAyDMpHWUbVWaJXG1WQhVk3pHPtj0++eOmTJjwrCWK7/2za1rN15z7XXTJu3S19cwhlVo/drNzz79nPeSy5n581/prTQWL1nW1dXTW41//vNfHHzwwcVisT+SvfeebKwtl8vlcrm7q+viiy+yhsaPH3fNNd8aN27MBed/yHv/zmOPfOih+/fdd59qNRkxYmi+EBKjEbmtDWlvH3Tjd783dPCQzq6KMWGtWrvw3z72yzt/MG3/WVd88Yuj29t/cvNti9eumXreWRtZVDhwiOFjZG0aBuIrJk5LTNJYC6nQFZqe0Fno1RxNWVzTUUP2LftfsyeAAiQKZK0A3IJF6Cu/OUi7BYusiwGvAcUsoqQgkyp5KSu6SFV4WS0GsrXKISOqxYtXFhet/dgpJy9ZvvZTn/5kx+AhP/zprbvsOrZWdSAYw1DyPlVbc0sp973v/fCnP7mtNRdeffXVxx9//FVXXWXgVq5ce+aZZ1YqlfHjx48fP76zs1NV9txz95GjRjz06/tXrlphDJ13/nm1Wu2cc8+eNm3io4/N+fb110aR32PKpH8756xjjztu0aJX2wd1fP7SizoGDfaexLmLL770yWcePuKkd531njO2VOIbbv5xyyH70c5jYqZCEAhrasoDldzMnMvl0itU1SRJUrBB1JSON8FrIgvaNiM6wL2kT0vPAhGVVOQOIjKpb7ng1R0K9OuOp/u/+s1k/suqyNI+RFbZIHU8swtkytZNqpdNBbYJO2tMC+W2Ll19+GnvWovKT+59pLJp7RkfPPu4dx47f/7cJa+tC0ittWnQrFCXOIZRkGF23vf2lgEVQRRF9Xq9q7P7d7/77VNPPX3nnXcCtH7D2hn7zTj77A/+9NZbH37kkdPf855CqaWrq2vipEmdnVvHTJiwZNmSyy77/Omnn370Mcd88QuXd3QMOu/cc+c+/9zy5auLYdDZ27epc91pJ502aafdHrz33ldWLX3fue+PF6+IX16ah4DUGGvZpKCkV9cEqKlK266Jw/bFwAPh9cBfATBElArMB0Jz5mYXrOxFmFmcp/Y2fuvhOwDh5nhdNq0ifbf8hKABEArynqxAoQnEZSKObDmLykA6DwAIgYK9LzK19FZW3nrPF95//kF77XT1Lbefe957hw0feu9991zysQ+HubBSd8QpNwJrjYgHIYoTw9ZY8mnLIgaUrLXeY+7cV7xXY0zH4MGtra0vvPjC0888vWrVhmuvvcbmSr/4xc/z+fwBMw9ub2nZc/KeNggu+dSnent6Hn3s8eeee/YnP/nJmnXrDSDOtRZ43gvPz5377Iipe+47a2ZfT+W5ZYvbd9u5YcgJhcSSOO+9c2nkDy/eeZfu3ttjM4Alttu9jTFpaovSJzE1vXdG80HKmvgwceqjkXphkNz2S22urTcOab9lS6KSNiMJQAFgFQR4kINmqnlQyhUMCLEUSqo5NTlF5Gp5y33PPle5876ffP7y/aaO/dGt955x4ilb1mz40reuv+22Ww8/ZGaj7pzzKoaZ2JD4xAQmcUk2UwTv1YuoaqMRB4Fl5kKh+J0bvvvKywt+fd+vv33t9e88/u0//fkDbz30Lb99+LHv3vi9efPm/+hHP37u2eeHDB3xpa99s1yujBk1ZsiQ4V++6tsrXlsd5qwoDNl6ubFowUJlM3XfveOarFu7ZvioUYmIZ4aQATXzGZQmqdIdOMUSTVPWAW9cUvdcs/UhYq1lymBOI+2BLIgxJtvSKd0eoaIqSgou99OWzh2I9OvSnDReeNETSJlAnFXckId6giosswGlCTsi0lQ6n5alE9SJDQINuO6TcUG4+u4HhrcFv7r6mxdeesXjjz77rne889Nf/MKJ733/IYcecv2N3/nJj3+8YPEqC4Qhq3JgKfICTWmqNDUE78UYNoa6K40jpu+97z77fvc739mydWtre0fHoME5ImZTKoVLFi//0NlnE7MTPeeDH5w2ZWpgbZgLRo0cPSgfGEIcJSaXSxKfK4RDBnUo4MkzUAzCaEtfntjkclKvG2YPyWp5VAwbNK02MwPvUoyNMcycKU3Tut00iZlu1NJ0YNLigoHCESKIENImXZL+QlXFe/PCPLzj6B2F9Os6p3uu+XY072XAULPNHsCAKFLe31C6b2cFTkgdjsy/MNY5r1CFDyEtbFYtWpLUkg9dfFGj3vjtU8/d98B9G9au3HPynseefMYJxx09tKNt8+YNmzZ3x6LifRja7f2bdPtLebFCGGzavLmlVPrcZV845dRT77jjzpu++11xzga5RiPJhQGZwHvkc2F3T/cr819e8PKCrq6ueS8vKoRWCMV8gZhiH0+fPu3i/7w411b89rVXrX9t2fnnnNkyd1njuXlWOCRr2KTOUwonI9uoB8yXidMtGk1KfPvTOsMyM/1MyADK9AvpqxCoWQqoPLDLE1FLkY49akch/bqylmt23ytat16JSNlAOKueEjR7PKR8vGHrxRMRK9KtnokciJiMTwxLYgjgRO1qB/v2I2Z+9pL7nnnyi1/78tLNvXtPGnvBhy/4wNnn5NpH9m5c8at7fnXXr3711NPPdJWjPMOmPIMxEHjnjSFRtdY2GlEYBDtNmBBF0fr1642xgHrRtL+ZYSZmhc+FOSfOkGlEcWhNqv0OgqC3p7LL7hNuvPGGmYcf+9zjD5900vGjh7Q+fOdPt1xyLR55pmDzOeZCYKJGNd3AVbI6n4GjV0WYyBjj08ghA5I03d6QBV3pGU9KpFm/D6+Sycu9pMwM0m6VWekBiJnGjaGFT7xxSKvIitahOtBMIKs4pWbETKl+lgDK2vMCTcIfoIiZjQm8JxFlIjJexOXyr6nDLmPeedlnVu868kvfuPruO++NgEMO2OecC84//h3H54aN1qT8+LNPzfntI4888NDSxUtq/S5SFAj5fCBMiRdlNjYIvNfEeefzuZx4Ee84dZUpa5FDxhpDXlJsYNg0GjUXSz7E246afcnnPzdtv0PXLlx4/vvPevHFeZdf8pF3zZz1zAcuml6TnCTCSmQk8SnbIemplJ2sf1rxnllzGkKk8hembdFWs+Uac9paD8gickmzYZTRT5pFYmmzpd4VtIPaKLwOpPv7XxsxTqFpDiHtcJ8G0aJiyFhmL9lcMHH6SU2qgyf1FCjIKIySARw8h0HVOS3Y/lp/bzG3+8c/ttt7z3hg7tPX33j9g4+9VGAcPvPAd51y6ux3vH3cxCmA6+/Z+Mr8+XMemTN/7rwli5esWbux5tN5hAmYFZZBZKAKqPrU2UkTTamTq0mEIGSXOC8wjPHjR02evPtZZ55xwonvRHHE/BeevPTii5969KlDp+9x83U3LPjSlfrYC7sBeRfF2vAaWAQqA44nBk7iASMeCKvSRyEKZOy3ppQptrnl2VafsiVM4jxpWhdG2zdXTJ8fblyEltIbhLRbsXL1XjM0q2DLbHpb9z+QabYlSQl8aS5qBgmUyBAMadaAwEOUmKytSaKh9cSdNcnN3Huvz34k3GfiL/7w2E3XfW/BE4tEMX2XXd569NuOPu6YGbMOzA0eChi46vKFr6xaserVhYuWLVm8YtmydWvX9MZRX1QXL86jEaW34ki9HCgQWOQC5MKgvb199IiR06bttd+MA/feZ5/pM2cCtrdz7Y9u+sFPb7l53srV+04ac8cV38LjL6341vd3gmmBWPIuaUDTVYM0rICqqNC2HPR/Q1r0f1kK2aRTRjaJCmRbUS9tJ09LTTmc95juMuENQrrxyJz1J75roE1Y6kMSCJCU7zZp+h3Nspd0n8qcS232pMoa1hCx0+wgVSIAoc1tjeudxWDcu47b/byz8pN2+dXv//CrW382Z85ja6txR2imT9/7sLfOPuAtB06cMmm3nfYALODhKqhWy53dm3u7127csGnT5t6+vkq5HMWR855BNrClYqnYWho6csjosWPHjB47evQ4G3YABvCL5r7w8EMP3XXX3YsXvpzU5eDDp139+S/kXnj11a98Z8/IUr3ClhMX5zO0DJpQqaqomHQPT03xj5FOfasBzKhZ/fVHk95cIpL2TAINsDFokqypbx88cCcOPvANQrp83fVbP/3ZAa8yQ5qaVcZQgg40gsyKXIjSSIxV0wYmzab7mm78ogKIYWMEQKxhWIPZnCTJ4MGjjjp8yvvebfaesmDNigce/s09d9236OWlZUGRsefkXffcc4+9pk6dPn36lCl7Dhk2NF8oIAyAEvC/iDTSyu1695auZa8ue/7Z55548smFy5YseW21A3Yd1XHBqaecfcppPQ/MmXvDDyf7oK2/njPGqapSkLbPYoVq5mYoRGXbRv3fbRpghfwxgzaA+gDGSBVI1MyIbbdVbL8ygm9cRhec/beCDOD1IN1z+Ze7v37l/4w0gRQDPaaQVplnpU0DNs0EpL0jm38JhYRkxTsDwGhEXmFVrVKuz0WVtpbSgdMnnX58x0H7BEM6nluw5MH775//0tznX3ppfVksUMqhY/CgIcOGTZo0cfy4CaNGjRw6bGihVCq2lGyQZZm8c/39/f3lSufmzevXrX/ttRWrV6/u7u5t1Cq1OgKLqZPGH/rW2e894YSR5WjBDTfTCwvHCXG9n0ngHIkxFMTQgEh9nIJGmhL9nIE9QHkOqPyZDbLW79sCs6ZL9UcsaUqOGtMsUMyseWDa00fsRf/On/vkDkH6zzMnfvOW//cvFcRNyj7r+pk6H2lvAWm2NFGIMClBRKw1IYUuTgzIQ2sGUMMiBEeKYTYYUm30P/Lk07973E4a23bQjElHHf35//iE02TFpg2vLF38xAtzX5w7d/mS11YuX/nqy8vqWadZGMASkBZiAOIRewjQAgTpc4pUaCmM3XXc0QfNPPqAmbvvtsfgzt75t9yz+KFHd6phvIZh0vBhUEnqgbUmIScq1jh1tnmsZvWXqYelWaCcSr4zQ9S0J5Okh/r2YFNTGb69QFi2C9KAVCMr1CweUFXausNosj9v05tOPq368G//d5sGMh9tu6wNCEjrVJWzhhZKCsAaQwrv0swnRYYFYNGcRw4gon5NfBAYG/p6lMD25gvx4NbRB0wfdtislul7FMeORqmwOY6XrVi5dNnyzctXVjZt2trV2Vcu90f1KIm9qHoJrSkWSy35wuBca2vHoPZxI3feY+LU3Sft2jFYNnbq3IUrfj1ny7Pz2xpuSC5stzau9ucCoyyAWDLiUfUSMwJCKJI1FU+3a1FquqXU9ExTEbiqctNf2WboTSPmZsHHwCOaqdBowNxT5zyO43RBYPah9q4fv0FIrzvg4MbCRfjjeDq7EgKUTPOCmp5IZsUA0mLz7NGUXYIQMQAvLu0SBASsalUYQqCYxKmSMVYpAMGGVYUnbojvdVHYPrg4ZnQwfmy464Shu+48fLedMWEkSjkQai6J4ygR7xSAGuKcsaG1hVIeZNHbHy1dsXHewvL8Rd0vzPMbtoyioAVUIBjvalAJjUvivAkKxEycAA11HmBVI00hqGoaPUFBTczEexoozVINmEgzZxMDz2lK/AdWQOaRQTlL5m876dMFka4JO3N/eujnOwTp17F7l3uJVFSz6KVpuASV5j1BUxaFB5yN7AlI72FASE1c0yxnyq6lPX5FxMAbBUMAjUnVkFGIehGO2UJdQGoSX2IzyuZdpb++aHF10atV0NZcuKAQ9OStb2spDWrLt5SKbS1hoQBmawwrXBzHUaOnr6u8Zat2VoZR0NoQ6quNZi7aUF0MiFewtaLa8HEQBN5JpETkYDhkqBcvza6jAFJgspr6LDpKue5012VAldBMSUvW2XhbFkRVU+vPIrGm87r9zHnvBzIfO1BQ9ueRlt5KKinJjLmJY7rOm0cWBpzx7ZpAZZdM2pTpDuS4kN2DAapKkhBUwaQM9s6zMYYDVSWhQBRwCnj1/XCwRomKREWAfAP9jZF9FpuqHps9NL0dokIdKAAxcREYpLEB2NiW1nYVqhmoxIlXZihEiBrkRNSCAxgQJQKoBAwLghdRJWNJoaQERhoOZS4zcVOUus27Bg3wJJR2OSPmppBBoTmbc86lB7OqAtos0oSomqZBG2MAJCtX76h7ar6eXFa2dtHEdLsHCVAPNX/c0utPhmZ3M6LM+872AIIIg9LydEABA5AhhiDtOECsXkFqBKKiAUhFiQgiSjDEnBKI8GkqP+VBs6Wmqlk3C+tFAjbsXRLH5F268jJvWomgAVsCwbmmNyniEQtZY+HTm6NmvndGBhNr1oMyzTiSiqSJzExOqFkiSNKojFmahEij0eDsmUpEXoUojVIpy6UQvKY7yYCAZweMP8+pBuPHNU9ean7+gYgjk4yhuVdrU2uSadwzE0+vHQIVkBDJdhxTmt0kECmDOCMbMo5iYC/k9MsoGyEDMkokUEnv5uBVPdSrd+odq1CaeVGv8J7gSQXqvc/uYwgwiEBM1pAxMCSp+E0hQpABgZDPCKFtqq/tRN/NW4ekYxsfQinDkM5Mundv82ebqrT0Nb2ItdZYM2DHqSkPPMGMH7ujkP7zNs1trSlU1Oy4OQBl8+fMJJuzksGeflhqSmkGHHTKlHFZg8eMfEn7DaQFEs05asZsiua7yPYx+bZFliaLtr0/miE+gdK65zAIVNV7P/BJtyMxUo5HRZvlVdmdH4iJlJu/UjVkmCnVfKJJambT1NzAgW0GkSbWweRdevSyeJ854UBmxJmsWKDbGPU0HGdmGjNqB4AM4HUh3dq23V7dnJvsaN7uTNrudEq/Z+LQZuyZuTTN7+kCz3YIzQJxTQOZjG2FDjydmvtHtjuAiKS51KhZMZMe/M1PoUScJoeMMUEYuMipSLZEUl8R3DxI0l2z+aZN7lJ1wGLRJLSy02dbxJwFn6Jpke12r5DRJylZpgooZ4RYZuv/X3tfHm5ZVd35W2vvc+70xqr3XtWrAYqiqBIEAQE1GhVFxQmHJEacMhijJjEa4xA79mB/nXT3F81gTEclie1IVFrbaMe0iQgmtoIIIjJTUBQ1vKo33+Hde8+w1+o/9j7n3UIMBRQFlar18RX33Tp13z3nt/faa/wtBvs1bckCoYw8KHbvmh6h9AYOR3vb6fVFJFuDmTUQrC+5dFFup0IKpV3yAAVbrNBxoPAQNaA+qNAHsvpaKkz/2IovENItxaMvry+EfYTD60MRzfJMfKofxaHhn3tZaFB8uA7ciDejmJh4ID9R6iQNBQmr32pQQqoTYe6b5473ZWPBBxGEe1INJwuV/0FBjSOG9IPvabNuilbjncG09kFaVd8+KuFYPtQuC4Y3SKAIjYrh4foMXWGYh2qkMqJUOpdF8EFF1XP5+8uMMZnLImMh7NQZn77ybqu3kf1DV/XdNE5ERIJqCMtCUGiOgoNsdaGuFrn6akABfLJyQNNQyXhBVLqX5ZfXwh9TUSYwcy5Z2McKKASiA4kQv/2piKMV30Fp3dTDhvZ+8uB72oyPlUhrYVaUnlVxrhSn8IBoQbXsdbVXTQKVkO4JVXdUKPPwpAY2h5ZQFyiwYWNtlucASWFdr1ZZr+qP4PKJekpAEud83arX0oaNYUOHfuGgJwBRcerK5JL/NKaiVB9hwaH4kuW3lYFqTiJiw8zsFQ+8daA+7akhLKHhSgysbAppLlFVnpo4fCz/dXnwPR2fvqPU3lRYPuFcLp5DoPcpcjvhVqG6CgMQNB75ojsoxFcDggjB5cCg0i4OM79eBOrUUc6GGUzW2izLAPiphgIBwCGlpuRT5r7SgzmO4jRNRQRQgXIR1it1dLlKBtdKuAt/EgTeyUJdFH/lfTlfclPqJHjlRuTZHMqbKhQ+/HiZ0iYdiECEdntx4v1MnHn6Q4LzX5EHR9qeupXK49Z/UxCHiqhQwRrc0Pvv6YFqo/JOCkNGSYNzjNVFpIcGgf2TExVrLBGpC2mfarXqmye8nzr4W4NWKCtEFMYY9jwkCmJDoqrqCu1dzHMqDZFVK6E8vw+V4FKhMA9LywOD5ouqt9i9JvCFharOKwJ/u8Gyw+qyDti7MDRAVbHhiHGAH8Y5PTVZHM9EoKKRodQ2wR0KMc6BZ0Mom1N8Ijs0eTjnfJyDjKe+CXtPg027um18DN2QUZFcnULr1cbIyEin3Q45n+JMDyWbA/ZUKIDxjFKSh98RUqvFH8Hl0vI8YlDIExe12eV5TESGCUrlxHsKnkURIR7IXqBwPctSheBZBQPCw7zqZYRnVTRxMbGvzsPR1N6o14GSHBcECZu7kGARF14qwg2s7pRSKYdNy+yIFGJUWYRCcTEYKuXABG/mGQOoc04iW2sMD9XrFWNJXJInDo7Z+NkegFJhcChWN5wQMbMlo4kzAkFR+oTQ5u4rABhcxAaCCVIY9kHrhsi2Cim8t+1/1+paP+R5qU9IekwFgIQtoAFlBPOPvFmnqn5YhP+cQkn4I6xeO1JRsgdHmpjt5ul87z6oSjGfkECiyp74pVgDXCjeEAQnIlUG+5LhDMFcUWFnAAN2zkIAq4DAKWCIch8ZCx3LWokr42uGslqUMvWca87PcpKEWBWBYAHnsyPkA65FGEWhKo6sjWHTPOewTR0X04oBVQ6PVcAUvP/g8ATQSqVRhPV9RZEWtaESEjjhYp8HJwql/7nLneSGLCsJhJiU/LBOrwNCpK2wf/wGJ2/3qiqdseNIFYYeFtIAGs+9aPlTn6FS5RUekk9oUKGFgtUFn+Uqu0kBX4WhYAo5ahYYhRFimBxQsBpOSHPnjDXMxgisQyTG9DPVZt4z7W6PnTRAdYBBDrYvUQ9aTHEpwrEhJEIAgYmZU8pTysuACquU4TOPi5KSaFghGsy6cFrLoCNEvm1YMBifIVFHWqgwLXk4gk4u2peKMlVddfV8WM1rdS/BgiueMl/4jEeA7P3lsJZM/UUvuF9UpAwiDapxKhR4wf9ATKTQPFjnoZPHQiqKWJjAOYyyyUlTl+UuI6OAY3FGHWuuSBKk86632G2JEa6YlDQBZWDnNW2Iq2jhtftN4vuKQrQyhWQMZyCsoUAXYAhDLcLeAkFJiUKtBMro2GBABoWHWfr9h9xyuMBnpZw45/PWxnp0yw8aNPgHnTQf9CZmQlEh+swjObvhsPZ05YLzgvVRBCN9hS+DBSjc3TIYXRjhhfWjUAlDNfwxDwNVcEZRM+Ylo1yNY1NnFddPjEgNXFFjc7DTjCGVqBpHlOV5nknVqAOlPj0sFuwDNyhsRL+mGKsdj5k6ETHB8gkOA4evHY504eDv+7iVz7j4ey83aDmAERCUCqAgIPPCzFmeEcgXdTvniITZ+qY6lA9IAb/LB7xKFCYelRGYC855uLA+gBwW0jw1pczk5FC7cTWLQOVdQBVcKjcp0BViKDOcbyh0EIFtRrxvuNrcsqmpuSVERCNRVFW13QztfpTISFStxnHMarI8SlNtL/ezNIXGEaLMVaGkmYMKCjdVWSFadEh43WJzCXEaH7gIwXVGaXITwacOD42UFQZXeO60qjtWY0cYWAr+yjIgo6Enz0iox1If/yVeDdSVV/o/RZVUDYXwjE5NHilzDIeJNDEPv+JlnS995af8dViq3gdTyMCO9hk8ICQK2SF3lvLcaWwWKry4YfLbzc61d9/F0NjaWsyj9aHpibUbpsaGbVy3leEoGjMYdbnbvz8SU21T93Z4/QAAIABJREFUzRGLGkPqUoafOBiDhDUMT2AiJw7EcRypE2RiQhIlhOgVLMESCnxTLncSms18+DbEI1cxRsg/MFjgCGTIqPqomHChQERWPU1ajZr55xHY46l0u72KHuy9LnWmqvnlS4+gOYbD5+wfecNrO1/+CgVrgnxdkagU2YIi7lCo7PJmCMKgYtQc5dAcEhnTljSfmL6hvXTVrr02ik7btGnH5k1Jq5n2krm5uZ337uwpUxyPjNaG4nhdLd5ejy/ecfbUfH/ftbf0yPUYEjEjG3IVm3ljiMoiNWKOKxWo5s4RiGGUVg0en1UwxoLgnEqee/3k1AUbSot45yFx2TJyQGWooIwF+RoSa60WJBk++FtC6B+jhmwVQqfLofqgfKHQ6DWvPBL4rsrhIl254AIffChd5+JWCy0IVp/GCE6SKpcRlSIVCTAT2EmuypUV5pvnF5pEZ5w08Zu/eul93/9hr7k8VKvWTtveRdbSfDHvHlxuJ11ZbK2MP3FtZ34p2TmbRVGzXjETtfMvfuZt3/pmdteBKURCWq4154QjG8dxmqa5OmVWFWbPRKMQISao5M4BYciTNbYs6lPRwUNaCwk3SgPh0vL//iD3ialDZDVI6g91/0qkSE0WxYRUkOdB4Vyu0CMYB/VyuEjz2GjliWf0b7218PuLqoSieIrCTx5zXSWugnqWLlUyPmXjNKYoMtF8qzPb6jmD5f7KXfftHq5V6pNra90syrJa6mp5MiZyRmPa1isjQ3a03e3v2pW2s3x6+sC6xqxNtp+8qWtqFY6K0HpIR4PJGuPTwKLUq5osV+SpJa5VqpLlVmGYIZllExHnLg+8JSGCTcF7HrCNvWYuvbjS3oaowBWZH8pc5s9p/wD8EAdvKa7u3sJd1kPiuMVRoCAQn74dY0eYEfghzOEYf/fvHPi1twBCyuE7ev+BiMJyDkWiIZQCDz2ESMinENQARkGSR5aGakNbptc1erIys/KRyy5fNz4+OTa8fmx0LK5Oj68Zj6pDgkgUyUqzNZstLg6naX3d1O6JyuUH7skjvMrZyZWaTaBcWKwgValUK3FcSdNURZxK06XjG9dVori1sLTU7VUMUZZp7iqwRGyIjTHOCYpiZSpcQlEpk+aRtSIiTkJMtzABQcSw3kk2MF5ZU8htBHuaiQlC4DKbUR4HomXmSqmw7Zk4+sDvHUmQATwkpGsveL6nMi+zWP6FQQgIesOjSMv41wJYI6QEB0khAkdQMRDpb0l6b1y7brbBrXVYNNm+fm/fyvJ1swfEUQW2HtfWNkZGG0PT64bXbZz6mVe//NYv/H2/hWuXFq+9b/bpZ25TcNLt1G3sNPElXwIx1qhFJqlIBnVEGkWVA2tH90RxPL3+3PPOXLnplsX9e9OhWr0jPL9SXZw/ySjEKdkcZC3HWWogHYWzcU2ijBJmqThKAWfYODA0JVdjAvIOnNGKFWNFjHc7BcIsBgTisN8lVjbKPoQngYMQTOyYnIglMFunAlViOJXoiMZMvDwEpHlstP6cC7tXXY2C6sTXYYQafx/RHUhneQ9GQAAZVUe+PYKZTddQq0o9zqNeZ61g1Nhpw9uiajaxiU6qd/J8od+b6XUWe8u3Lyz+w87lqZHKU1/9su2veMmNX/vOfUtNC6xp1B3SjmuPUc6OvMlryFgTk5DLczhiZwzDWXObyz7+wxsymA+9+NnDWzbsdSt7h8zJG8fPf+5pi//8nZnbbp6KqpkqDLs0NSCQhVHDBnkm7CzZ3GWuUpFcYjaqagjqEoKrVitGKpwIQS3IQYXgSEQlAiIliDiIwuZQBSsI4hwUBANm5dV5e6qqYpTMs55+pHqmB+WhTVFa+753d6+62p/QHE5nD3PI5JQGJIUd7a8VRwSwVY6VM6EV6EKjMbNpYs6a6Xi45lBPZXilV+nn1GmupL2pKDtlJO6vG99fGV25dd/uuYPfv/O2X37aRe2rrmnOrQgw2qjaLDHOIQ/0cASyJraIJXfqyD9gR7RSiTuxWTEk4CzXVOxMq/Opq39cUVx43rm//ZKL87GxXdfdMKJuRPOqcg7uKdRpzTlrcnVsNO7ZvKP5kIhls6JKjgxVDZQStZoqHEGdH8ZroETkHAsMKFJVaM9oSoaEY1ECOSbHxGIqziiZhJyIs0TMkYpGv/+un8yVHm2kowvO5yIW5i0eAhlwGPFcwky+oxy+6U59mY8g4AFjyfYpunHPgX+cmRuu27HRsfXja6ZGhqcmhtaYeFSpmue23+NOuyFRpVpXwg9u/PHF25/Uh0OWV4AJrvBSN04dsWTiiNgai4hydrm6jCQ3CnDPUsKm6zRRqlarcbWeZEhQ7ca0EkWX3/DDuW7v91/+qnj9+Ow3rhzpKYCMbKwWkD53CTns0GwGnRhqbFhbP9BZmV1aqEfk0M58F08u1G5UbZ0qnEsMk4k4IeLIMfVyzSExnBoIi3HCYBIIKGfOmPpOIsMqcOJTlawC+5Rzj2DApJSHhjRXKuPvfdfSH/1x+Q6Vx/P9yhBISVlVrNdKgFCICSqk4jAllfPrjcqmxi5J9i4v3XtgPifEBkNxZV1jdGpobGp4fN3UtkWXLrbuMArqZwfv3pv3c03yCBgbWpNmWHF2zBojOavYmA0jSbqAMmBIVIWFqnYs6yQkMjo8XIVZ7PSh1mWKmMamR//vbbfft/ix9/3q67decvHB/3PVRDthlQZgFF3FwliUjE1h80nJlD35Z845+IUrD7g+PXnH+okNvU6vObdgkx46c7OLS6aTDokZUVPVKAKxsqgqJCXpG0MMUgEkI2dhYtE41Zw4AZyqDWVQmVIev/cdFB+pto1D5CHPwBt9x9sW/+hDCCakH99dOJuFUMgV+Mg+EYg15PYdAEgsyejC8o5efWO1slCP01PG+5V4Ls32N5vz/aSd5LfO3/c9uSuHcaQcyRjjzMkNrXv22lzzxPWAZGJ0Zf3Uvok1tr1Y60vMJmcbq1oTIU0jSSOIJeGcOgokKTmJLUUEqHS7XQhGbe2SZz/3rrvv/Ob3b37fZZf9l9e9/vxfeMXeL/99o99FltRzSFztbd/YWnfKD1vNH999yzsvOnfZ6tCTTr9pOPrfO29Zv2F6wxNP2mCrY1HN9HNptbTVWZydTw/O2pWu6XYr4mJLmlPsqkMgS1ma951hItTUGkhfc2cJTo2yBuIimLe/5Yhhe6g8ZKR5bHT8N9+6+Jcf9/qbisw/DumXp8LJotwzmoMNiCAOuZAyUT13tWYyvszTJs0jSqzNqjUdHk4m18wrFgyWYj6QdBe7nYWDB7dunLh44yl3/NN3R5Qkz6hhrrjm2ytJf/rs09q9hLvdbq/X6mWm16f2inU8bKMoS+qkYKjlxK0oYGpEkS5nnZW0VwWq4rYNjT35vAtGs/4//Hjnuz7213/wml963ptff8OXLk9n5qfIrtQbs7WRL33/B1fO7Nl6+nqNGonGQPSlf/nuzXPLCmwajtdRrVIdG1u7dtOmdZunpzY/YfNkbIadRK12cuDg0twsLWWVedfvtuJ+UjeWSJRNX4zhKDN5gqxqIsnDPjG/8cYj7kaX8nDmWo69/31Lf/nx1cBngW75J7zJBhJIbhhKsXgeVM0hjp1jBQyLVIRqLmc1mUOattJmJyMeNuakSpRUbB5zElf6m7euG1/rrrp2bOe+tROTzxyfyDoLszt3/83Nu7cON4aq8eTasY0TU5NTkxOV+qig3k2Xm8txpx33k2arhdFGZ7ndBarDlQxJU1baVnICqVywfdsdX/3aixvjjSef+Y3rbv2vn/v0XS997mve/OrFK75+7833Yc3YAlVvnV/MjRmfnKy6qJe6XoSlxGnFbjtr+2+89JL4rj37DszsW1rYs/f2H9x6XWulXavWRmqNUzeftG3LqZPbt40NDVXzrDI7M9Xpyo/vdHfurZjKSlxZTnuWbcwmTbKKrTKBVSu//64jh+z95eEgzWOjY7/5luZffvynXlEEAAlFGwNUUDpdPu8hjkTUxFqBUKxUVWKoZXIuy5PMEfeQJyCy1eTeWau8Fba7sPD8tcM71k0chGaCg0uLNy3N39Vckrt2WUbFRlMjY6dMTm0aHZ0am9i+adPG0fFbbvphZxkJUK/W6tYkeZ4YdBTbRhs1xZpWJ9p34CWnbtt0wdM+d/21n/i7f9qztP/3XnnJwtiNe2ea+7M8BaoqG019vJnFSgmbpNNTdc/YcfqZVN1//Y8vmhy2G9f3qps7UdSNqssJ9i+3b921+/M3/VPC7Bo6OhG95+WXnDG0ef/dd2fVqCcmX7823rJheHykszhfWVjpzzVby0tTv/aGobGRh4vjg8vDnFU7/u//3U9DWqFETL70H4hFCZoT9WEIYDCLqSgULLCqZNiqiIMavy5EIxBDMuR1YBQau3TZClsL16unZtNCMtarJrVKHtnemsnnnbylbc2BVntPu7mYZQc73etvu+U7Dg649OILf/7cs1p33twTtcCaqF7vU6y2tbhcA6pxrUq23k3XLLfbN+96yrZto896/t9c9y9f/udb2q3k/T//qxvnmt+77Ya2dEV0ql6Le0nKMicrwoDTzaNjaxeWk517K/dFLU27w9XeaAOjo41q5cyRsaec/+T6+BqJK/fOzwyNVrct6Q++8Ld2oZkPVxrnnMPbd9zeba+k/c1bnjgdxcOi651MvO89jwDHB5eHiTSPjkx+6L/Pvvt9ALB6VAP3S35AIwgBTkkMlBAJsdhIQWCBzQEgceTUGGGTiqpKJGRBogQiqyA4YfSkVzcxST6cSj1N8yWkhvvD1XgmzhOXNar5monWWLS0jhZdmsVmZnnpiUOjNLtA/ZQyiYG1bOOVtJoI5wKioUaNkpRXkrWI6klq77j3tC0bfuXpP/uJH17z7Rt3thcve92ll7qReoeVDepjjX7abVuZjWV/nsfDtjEU5wfmp4iGtKZUNUMjW592rk6NHFxcWJydnb/35vy2noEbMSNbGhs7O+9Y3+w0I0RPOWPX9OhfXPGZuw/OQjA5Uhtd07Cxedd/+qPnVCuPFMx/VR7+/OmhX3/j4of+ND8wowMlSjpQr+S9rxwGAAOxiCgMETFlooAoMoAEDFVyYN+NDKaCdhSqCcCgSk4RWWTiTVRDStC6iciB80wzzZbayWJrGG7KEOpVrUZ9uPGdu3nfgS2d7oUbJsaH6YzJ8XqWN0TzfqutOjrMpt/lDBBTlyx2fb733lOz5jue/KTP3vCjG+7bve/Tn5ya3qjWZi4fHR7VxW6UUzNL+zHW2njSVrJuizhl142iWIaGrj4w873bb966bcf0yTsmzx+tNNikHbN3OVnS7mLkuqhu2Xrn2MR/+9yXZiWrjVR+7oXPu+Q5F/UOLM0tNp/94iOco/xJefhIk7XTX/7i3qc/i4rSIina6cvELYq8elGsEqhhCrp33w5vSBjqPc5Q8cNgCW2Q7ACIWFAgwIaIwkZRJY7EicucCozIEGiYkGfOtTquQ31IvtR0uZwSj4424rPWrec75+bv+vbJLv+5J5x5NrIzpqaqzVZEmkccp2o0n3A23TdHkDedfd7/uvnWaw4cnG82o8g6yg0b41ARcu3uMDDSxzoz0l7ojpqaEbFIifojE1Mzu3/83b+7sYJYLY2vW7vj5JM2j0+99ud/cfrMk7/3V5866Yk7vnLnrTOpi6Lqiy563ptfeen1l38l37fnRf/zr/hRGHp3P3lEE+vjs88aee2l7cs/738sC4z8T6GgwqfiQo0trQIf/gVCghYETyBNBPXFmr4qzBt3vj4w1OczkSEWJ7nLlSCkTnMLYs9K7JRVI2ucqDGm2us10ry50BFjHXEl5tMnhk+pyPCd8/17rqt3urmKMowgcrJJTeNgt54ceP2204esvXrvvhqs5JgaGpnfNafsZKUXO1SG6mMnn3Jw592z9Ttb3a6TrLU4O7zYeNdzLoyjoV6PdzXb39t1z5Xf/H4TTibWvfGii3qTE/uqdMv+3RVjkaa9Vmd0cupnn/W8dJhrJ295JCgcpjwipAGs+dMPLl/+ed9ZxWXtoE9X++qc0vUaaJcqC+RCX6EfRIsyG69QJV+XU/Sw+FJ7oCjyVc3SlI1vPhWQQpRVGBx7Kq1cnTgx6MfE6hpOSCKNKnGW83xTkzTKHdStYSvMYlTgrMtrYuJOHvcyztJLz9i+tlG9/t49qfCoar/XIpZ2e1GBubT35RuvfcoFZ42tX1ubbfZnZ6OV5dbs0vK9+02CDJWxU7a+8sLnNVO5+pYbf3Tr7fb5L6gPDQ8RP3FsfFcr7+Xuqm9f+bJ7bjrr5O0f+sJXHyEEhymPFGkeGtr8jf+z/+KXKthBDHxpPYJ/VZTmlBijyHUOjjaw1obr/Q4W8dNfg48eGGgJgAHFcaWb9p1zxloC5ZI7l7OfCKyk6nyCX8QZkDo4diRomEidS7MkhkSs5CQymjthiM3JRUgJOYsVVCATMNxs7/3RrS87deOzn7Vtf7qyOYr2Ls3bfvucDRtu3TfX7Kx89C8+9uXJkW1T67ZMbTp969Z1a7ZPD1eradKfX5YMN+7ebZf3k037kvfQSxcO8OLCyB3mvU+/aOWS4Xs6B+9t7t+9sPDW9/+3qFJ9hBAcpjycSeM/KfO/8fbWpz/ri2PMQGOSACjJRAtCJwwkN7Ug9wgeVtHo7M06vw7Kf+LrcOMods4VtWrkR5AZIgZzWcQEFV8PCDDBwE89ZwfOQWKNb7xx6kymsbKD5AZEakWMEMC5sW3GiqG0MpwP1Ucnajo7286yfMvGhYnxeVTvnj94x8E9B+YX24nvvtWReuUJJ288Y+vWqYnJyc2b7pjZ85mvfvXAUveSn7ng/c9/4W1f+FKlm7dSTWNTG6pMb16/8XWvW/Pyn3/kD/8w5cggrVm250nnu/v2+HKKoggevpjMFABjoC6urNfxZ7PvlAKQuxwKU+xmAK6oS1Q/pwJqySCsEqviVOWQlkkCKQlBSVkQAT6UZ0AWROAMlFk4FiNgJQFUcgMyBqK+It8zPbMhI1pJGAl6wypKvFSr9CYn+nE1qzcq05NJ1Szm2X3t5oGV9mync9+BmT1L7RYwWoECHYEqfusVl7x4YkPrvl1Pe+Yz5xc73Xa3s+e+xMm5X/zcozF9+KfJkUEagJuZ2b3tDB/9NkWvokIN2HOtFeWGq2O1MFDX7mdSAXDioL7dJsTPHcR/IA20e/kSXmMMnFM/7Rq+hom06MooCr85Y1KiWKjuNAIcyBERU+yQMbpWjXNVpYhIVBPNlBgKo4jADpwaUuOqaR6DEzItMjBVJ9QjzeuGRioyNZ6uHe/GlVZUWYy5Rdi/f+bAvn0HmvNZFP3uL73BXn9LP8b1SWvJ2C3bTts2Mf7Ct/++rR/5coN/RY4Y0gC6X/+/+191qf9YP4LHl1UbmLLTVUu6VNXVVjYiAmvJCQRa7fNDYZih6JcKDTPCWE2UkrfPScv+G28ZKkAwuaGc1AAVp0ZUQc4SiI2SkOZwxmmsZH0nrTXi++RyjUGA5KTKap3GIIFtMwimZqJcJLGOxbXV9VVj04jrw+n4aKsao1EfXT+1WBFuVDbC3vuNfxl+9jmf2X3bN26+9WBXP3vFFc990YuP1GM/TDmSSANofvBP5j/wX8JHAyiQFogvpfbN41h1yeCZEwnkT+lQBa8qRQGfEGnoaC2QhrKv4NdQyVv8wrA+ip4SYZCBcYCjwI9EGiqUlUJbgNFgCqghB7VRRQmUgXJnQIRcjDpmm2uspGR7Fk7ckKpR7UMYNrEAaTVXI9JmdA0rSNWsVKyuadg8W7PUd9tOys84fZaro6++ZPsLjthspMOXR2p7309G3/O7bml5+cN/4X/0MZBQGwk4FfJkPmXvIZQDQ6EaP6BEfOUZcdFpyiApiBfKYx6+AMsNdICFhRH2dWjPAQFqAz0UFaxYMKIOBCgzWbCDOl8fAzgRw8yhixTC5HmYHVGuoVk0ho/WwrcRkPh+WyWSKiMmNUKxIEu0dWBeIOMaL91yd3bv/Knv+I01jwXMOOJ7GoCKLLztd9qf+lygn/S0qb4HAqBQ/O8XARRwUAYZY1jUMBPIuTy0wBDrwO4P37isti9Xko+seWPMmwK+iwBEgFulLiGFeOLG0Cao3jkr/EARJ0IEayMmds6pCHFBgiAAQgkw+ViBDwuSD+MqMxvPGgl4P8Jz4MApRInYvuEXK//jg0e2B+fw5cgjDUBFDlzyyv7V/xJcHc8gTDBKBMgqJyAU0MiQMUm/Z9hYZjjhsA4CxBwGmQMFKZ0WTIO+LUOLaKv/u+LUoILQYjAs71sGBwK3xFrYeSio47wvUJL8qsIYJoWIGsP+Bn0NHTPLgNPol4ufl+J5ZFHwJlZe+sL4c5c9VjDjUUIagGbZwV94Te/Kq4pGWyV/zmqg//FgOBUX2/UbNiRputxqiohkOTuNiCP1dG2+Zw5hIIBvqSqITYhIgIInLFRGcGgsCBdTUePmnTQulUoZ2uFDmJMA+MYq66v5RbzTT7q6DvyYFE8kFai8ifx0YSZmY3zTmobOBxM/+xm1L32G7BE+Kx+SPFpIA1Dn5n7l11e+8ne+4Two0PIADtlNzhi2Ut18yhZnaKG5lKdZ1k/ybsKZiwJjrMAXpCkRlEERG8vGicslV5AaQz6IJiAqlYGnQKHVnonQRcd8qOXvv21Js17CSQU5lXOOmTEwHskawxRGeUrQLoGhTItrRIQIShy9/CW1T370aLrODyiPItIAVGTxd97d+uSnfY9U2GHM5EfUeTFRIoKKXXfy5ni43u12szR1SeZ6SbrS0zQxUB/sJIU6R0AtqlSiCIo8z/t5mns+ZXi+Qt8s6duUuYy1DTbS0aEYDzbAeaTL/V0OJVVVSJhgSsXv0uLDUeRpQKv8hF4xxL/0mvgjj9nZPCiPLtJelv7DB5b+7CNakHD5N9m/JpAywH2SxNLY9NTw5BoltiIkKmmWr3STTrvb6bjMERBZi9wRyDJHxtrIimqWZVmW+XgLE5N6/4q9mibAEPtnPcgBiEMx9u+UHZf+tUc6vB/Y4MJou8F/joHBeOX7RFR525vtH/7HR/vxHqYcDaQBdD756dm3v9PPSPREqT72aUBGQWBnzYrmqEZj01PrN29Kur2DMzOVKGpEcc0wQO2l5cXFRRVl8bF09l3MtWrVGOvyXETyNHPijN/TwcaW4HGV4LFh4wd9F2RTAACvpUUlshEKyK215SgVdauTy8oj3ZsGXmNRkYjzMFf//I/ML7/2KDzbw5SjhDSAfM/emRdd4vbs1WJKHAAmipy3srivLodmDBtH/tiEquY5ixJhZGjYGJv2+1mSqog6IYDZiDhmrsYVY63mLs8zceXfhpkHKDQ2QlrER9yKiIscyhg30HO0OmMj1LcXXDPBeafwOtAhwnfS0kkbG9/4Cm3eeHQe7GHK0UMagOb54rt/r/mJTxZMheCSg9t33ipgkLk8MhEbVlXLNk8zY4yffVKr1Ky1Lstclvtz1Kk4J6ww1lhPLMImz/M8y/xo56gIyYlqGUtdbYBGQHo1LktERJ4r2jMdANCCopdWOSAKpENAPmzuypt+KfrjP3xszewHlKOKtJfkuh/se9HLtNfzo7TER8JVDQiixrI6FXWWLFCMORAhJgch5TiKUMRERdWpZCJUjCghoBpXImPFuTRNkTvLpuSMKZyu0MovA/ydqyRlvtiBuLCfgwUeaPYDumWqxdfCEDGjWq1//Yt8wXlH+XkepjwGSAOQfn/p996//NefQMHPZQK3kDo4gzB7nUGu2IA+9enET7EP/MvKtDxs05GKJJld6Vb7GZKUBBXYRn3YmCjLstxl6lTFxWGWKlCMzYP3yAuGPxTOlXOOCMyGUeZTPHEVe4q1EGXzFZLMpBq/8Q3Rf/8AVY9SWcHDkMcGaS/Zrbft/7lfzPfuC8Evf3ziEBfIZzNAxdQlwFpLhV4VQmcsXv+M88ZO3dLQtNVtzx+Yca0OlnutfXOulTSiqs2VnMTE1hGceLM5TCUNNUvufjTGxOTZh3OXI8zmXa2IwcCsDgDmtFMbX/wUbdt6lJ/eQ5XHEmkA6lznbz4597vvDcT/RBxY3QCAmFVXaWI4RCkJEs5IQJ3DCuVYU7M7pkfP3j5xyoasn9hmL2nnycGW3beAheWstcJOs15CThikosRGVXOoJ6r1SJcutfNzUYjJkDfuiIl1kFYycD4Mf+zD9rWvejy4yw8qjzHSXqTZWvrPf9C87K8VSspU1BSG4kM/0B2Bki2o83CFGrCoasQd6feRRSM1E8XEFjCGbI2jGoFE6pVqv93ttjpwAoDYSMEuEhVREGamMIErSC65ZWP8TJxCt3tDr/6e36n97tswMvxYP7zDlccF0l6k1Vr+0z9f+uCfkCpCyggkxFAH8EAEm4oEmUByG7GNXdKLmapRlKdJYBIBKVvHEM4JMGSsBhpgDysRgYkVLC7kR0HEVKlUkiQRkUqlUqvV0jTNs0z9wDMRw6bx7nfYd/4WPQoEFY+qPI6Q9iKdTvujl8395z9ACJIrh2r/UEKigeeeyQ/MIKuGIgKJqHMGZEAgMCxAuUpqHUfG+qKwPFcnnlKaybOjKTsnCL4WgCiKcud8rNvbBOUWH/qP74ve/MZjDmMvjzukvWiWpTf+aPmjl3W+eAUrE0IeAWXtN4XEZKwcgRzEQR3gJwqSKgtZMIH6lJJhayxE1am1xrApWa18nNPn1vxgaWtsGHpUhEXjV1xSfeub+JyzKIoe6wfz8OVxinQpmqbp9Tc0//x/dL76dSCMGKOi0ACkRtnPF/OdukIsniIdDDBDraqf5zNA3E1+0r13sRzcatv3wOzgykteWP/tt/KTz3mU6CiOsjzekS5F0zS/466Vr35t+WN/5ZaWCGAlhLkdLD7fXxAdMsDqd66uEqSFOkIoyBSoC1SLeROqyuNjjbf8WuXlL+Xt2/5tAFzKMYML1Nn5AAAFNUlEQVT0oLi5+eS73+v83de6//gtWV70hzgHMucweswXpyrBF4eADRR+NgcIrKwE9rM/xkZqL7io9vKXmmc8lSeO2ISTx5sck0gPimaZNJtu7353++3ZTTdjYVFarXxpOWsup8uL+f6ZyMFOrzcTE2Z83IyN0egIr1kTn3WmecJ2s3EDjY0e06fv4csxj/QJOUw5BoI7J+SIyAmkjxc5gfTxIieQPl7kBNLHi5xA+niRE0gfL3IC6eNFTiB9vMgJpI8XOYH08SInkD5e5ATSx4ucQPp4kRNIHy9yAunjRR53LYGlXPGDvX/49dt/8v3I0NaJxsvO2fCap5zEBAD/4Su3fO2mGQBXvOVpp60b+mkf+Nw//ufFlXRquPKP73zmo/atH79y7O3pzOkdBzsf/Madf/bNOx/r73IsyeN3T5eyY/3wM7et9a9n28k3b5vtpg7A567d86tP3zLeiNePVrevGwJQiY69hXvU5BhA+qyNI2977rbyxzc/a+urP37tSpo70bvnVs5vxL/1nFN/6zmnPobf8JiQYwDp+8mm8dpZG0eu2bUIIHMC4N1X3PTN22YBfPVtTz9pTd1fttzNPvKtnd+/d2klyc/dPPbeF+74yY+abSd/8a2dt8y09y/1tkzUzzt5/K3P2jpUDc/k1z51/fW7lwB8570XXv79PZ+/bs9vP3fbK8/dcHRu84jLsYe0E93X7ANgwrafYn8daPbf9Onr9y71/I9X3j57+4F2P3OD19y4Z/m3//bGdj/3P942075tpn31HXMffd25m4vl4uWvv7Prk9/djUHW0mNQjgGkb9nf+ujV9/jX/dzdsHt5z2IXwC+ev3ly6IFnTH3kWzs9zE/cMHLJ2dP7lvufu2a3DMCUi/7h129v9/Ohqn3fC3ectm74mrsX/uzKu/Yu9f7kn+7601efPfhpn73mvh3rh7dONqbHHr+UBw8qxwDSfrfd783XP+2kd1x02gNeP9dJ/v7HBwBsGKt+4lfOr1gGsH6k8sFvrNrq1+1avOtgB8CbfvaUlz5pGsCOdUN3z3W++qOZq+6Yu2d+ZevEakPla5+6+Z3P237o1OVjT44BpB9Q7p1f6ab5aO0B2i/ung29Ci8+c72HGcDLz94wiPSu+XDNZ763+39dv9e/7iRBk98zdwjSrzpv07EOM44JpH/hvI3//iWn+9fNXvbhK3d++YZ939m5cNk/73rPxdt/8vqZZt+/mBpZVbZDVduo2JUCy7lO6l8srKT4iSaW8oD3sqbxb6EV7xhAelBGa9Hrn3bSl2/YB+C2mdYDXjM5HA7v+U5SvtlNXQkzgOnRsAg+fOnZz94++SC/9djf0DgWY2SlQm728we84JSJYDn/w80H0zzwUf39TTOD15TO2I/3Nss39y71/t/Ohf+3c2FhYIn8m5FjbE8DKD2d5FCvqZSNY7ULd0xefcfcnsXur3/m+kuetGHvUvez19w3eM35W8ZPnRq6e7bzt9/fe8pEY8f64XvmVj585c59y73hqv3623/20b6Loy/HHtL1OBBlL3UzvR+RWCHvuGjbzfua8530R3uaP9rTBDBUtUkmPtICwDL9uxfuePvnb1xJ8/d/5ZbyH0aGPvCyM4arx95jeVA59rT3eD3eNF4DsJLkX/zBnge85pSJxuW//tSXnLV+41htvB4/87SJz7zxgidtGj11amhLYVSfv2X8i2952ovOXH/SmnpkeMNY9ZInTX/2TU+96AlTR+9mjqKc6J8+XuTY29Mn5OHJCaSPFzmB9PEi/x/AcuK5LtDR1gAAAABJRU5ErkJgggA=;" vertex="1" parent="1">
          <mxGeometry x="166" y="15" width="104" height="111" as="geometry"/>
        </mxCell>
        <mxCell id="4H_nPvJmWoPfq0nWGjwT-6" value="" style="pointerEvents=1;verticalLabelPosition=bottom;shadow=0;dashed=0;align=center;html=1;verticalAlign=top;shape=mxgraph.electrical.miscellaneous.batteryStack;" vertex="1" parent="1">
          <mxGeometry x="355" y="210" width="100" height="60" as="geometry"/>
        </mxCell>
        <mxCell id="4H_nPvJmWoPfq0nWGjwT-7" value="" style="shape=image;html=1;verticalAlign=top;verticalLabelPosition=bottom;labelBackgroundColor=#ffffff;imageAspect=0;aspect=fixed;image=https://cdn3.iconfinder.com/data/icons/funky/136/Fire-128.png" vertex="1" parent="1">
          <mxGeometry x="381" y="170" width="48" height="48" as="geometry"/>
        </mxCell>
        <mxCell id="4H_nPvJmWoPfq0nWGjwT-13" value="" style="shape=flexArrow;endArrow=classic;html=1;" edge="1" parent="1">
          <mxGeometry width="50" height="50" relative="1" as="geometry">
            <mxPoint x="20" y="840" as="sourcePoint"/>
            <mxPoint x="70" y="790" as="targetPoint"/>
          </mxGeometry>
        </mxCell>
        <mxCell id="4H_nPvJmWoPfq0nWGjwT-15" value="Battery Bank" parent="0"/>
        <mxCell id="4H_nPvJmWoPfq0nWGjwT-16" value="" style="shape=image;html=1;verticalAlign=top;verticalLabelPosition=bottom;labelBackgroundColor=#ffffff;imageAspect=0;aspect=fixed;image=https://cdn2.iconfinder.com/data/icons/ios-7-icons/50/car_battery-128.png" vertex="1" parent="4H_nPvJmWoPfq0nWGjwT-15">
          <mxGeometry x="391" y="650" width="128" height="128" as="geometry"/>
        </mxCell>
        <mxCell id="4H_nPvJmWoPfq0nWGjwT-17" value="" style="shape=image;html=1;verticalAlign=top;verticalLabelPosition=bottom;labelBackgroundColor=#ffffff;imageAspect=0;aspect=fixed;image=https://cdn2.iconfinder.com/data/icons/ios-7-icons/50/car_battery-128.png" vertex="1" parent="4H_nPvJmWoPfq0nWGjwT-15">
          <mxGeometry x="570" y="650" width="128" height="128" as="geometry"/>
        </mxCell>
        <mxCell id="4H_nPvJmWoPfq0nWGjwT-18" value="" style="endArrow=classic;html=1;fontSize=17;strokeWidth=4;endSize=3;startSize=3;jumpStyle=arc;strokeColor=#FF0000;" edge="1" parent="4H_nPvJmWoPfq0nWGjwT-15">
          <mxGeometry width="50" height="50" relative="1" as="geometry">
            <mxPoint x="602" y="660" as="sourcePoint"/>
            <mxPoint x="487" y="660" as="targetPoint"/>
          </mxGeometry>
        </mxCell>
      </root>
    </mxGraphModel>
  </diagram>
</mxfile>
